# This file uses centimeters as units for non-parametric coordinates.

mtllib slope.mtl
g default
v 3.369092 8.560638 4.187025
v 4.707692 8.560638 4.187025
v 3.369092 8.823899 3.976770
v 4.707692 8.823899 3.976770
v 3.369092 0.184329 -8.203823
v 4.707692 0.184329 -8.203823
v 3.369092 -0.078932 -7.993567
v 4.707692 -0.078932 -7.993567
vt 0.148237 0.975760
vt 0.192873 0.500014
vt 0.210554 0.500014
vt 0.165918 0.975760
vt 0.325506 0.975760
vt 0.280870 0.500014
vt 0.298551 0.500014
vt 0.343187 0.975760
vt 0.815453 0.477837
vt 0.885701 0.477859
vt 0.885550 0.955694
vt 0.815302 0.955672
vt 0.741335 0.477837
vt 0.811583 0.477859
vt 0.811432 0.955694
vt 0.741184 0.955672
vt 0.713877 0.640510
vt 0.713877 0.570262
vt 0.731558 0.570262
vt 0.731558 0.640510
vt 0.963539 0.570234
vt 0.963539 0.499986
vt 0.981220 0.499986
vt 0.981220 0.570234
vn 0.000000 0.624055 0.781380
vn 0.000000 0.624055 0.781380
vn 0.000000 0.624055 0.781380
vn 0.000000 0.624055 0.781380
vn 0.000000 0.815656 -0.578537
vn 0.000000 0.815656 -0.578537
vn 0.000000 0.815656 -0.578537
vn 0.000000 0.815656 -0.578537
vn 0.000000 -0.624055 -0.781380
vn 0.000000 -0.624055 -0.781380
vn 0.000000 -0.624055 -0.781380
vn 0.000000 -0.624055 -0.781380
vn 0.000000 -0.815656 0.578537
vn 0.000000 -0.815656 0.578537
vn 0.000000 -0.815656 0.578537
vn 0.000000 -0.815656 0.578537
vn 1.000000 0.000000 0.000000
vn 1.000000 0.000000 0.000000
vn 1.000000 0.000000 0.000000
vn 1.000000 0.000000 0.000000
vn -1.000000 0.000000 0.000000
vn -1.000000 0.000000 0.000000
vn -1.000000 0.000000 0.000000
vn -1.000000 0.000000 0.000000
s off
g pCube4
usemtl initialShadingGroup
f 1/17/1 2/18/2 4/19/3 3/20/4
f 3/9/5 4/10/6 6/11/7 5/12/8
f 5/21/9 6/22/10 8/23/11 7/24/12
f 7/13/13 8/14/14 2/15/15 1/16/16
f 2/1/17 8/2/18 6/3/19 4/4/20
f 7/5/21 1/6/22 3/7/23 5/8/24
g default
v 2.832030 0.777965 -6.707189
v 2.833598 0.867351 -6.595269
v 2.832030 0.858439 -6.771461
v 2.833598 0.947825 -6.659540
v 10.197929 0.784080 -6.815297
v 10.199497 0.873466 -6.703376
v 10.197929 0.703606 -6.751025
v 10.199497 0.792992 -6.639105
vt 0.414880 1.000000
vt 0.409602 0.500014
vt 0.427283 0.500014
vt 0.432561 1.000000
vt 0.963539 0.499986
vt 0.968817 0.000000
vt 0.986499 0.000000
vt 0.981220 0.499986
vt 0.148239 0.000000
vt 0.218487 0.000000
vt 0.218485 0.500014
vt 0.148237 0.500014
vt 0.000002 0.000000
vt 0.070250 0.000000
vt 0.070248 0.500014
vt 0.000000 0.500014
vt 0.655363 0.570262
vt 0.655363 0.500014
vt 0.673044 0.500014
vt 0.673044 0.570262
vt 0.694372 0.640510
vt 0.694372 0.570262
vt 0.712053 0.570262
vt 0.712053 0.640510
vn -0.999940 0.006832 0.008554
vn -0.999940 0.006832 0.008554
vn -0.999940 0.006832 0.008554
vn -0.999940 0.006832 0.008554
vn 0.004174 0.781345 -0.624085
vn 0.004174 0.781345 -0.624085
vn 0.004174 0.781345 -0.624085
vn 0.004174 0.781345 -0.624085
vn 0.999940 -0.006833 -0.008550
vn 0.999940 -0.006833 -0.008550
vn 0.999940 -0.006833 -0.008550
vn 0.999940 -0.006833 -0.008550
vn -0.004174 -0.781345 0.624086
vn -0.004174 -0.781345 0.624086
vn -0.004174 -0.781345 0.624086
vn -0.004174 -0.781345 0.624086
vn 0.010949 0.624021 0.781331
vn 0.010949 0.624021 0.781331
vn 0.010949 0.624021 0.781331
vn 0.010949 0.624021 0.781331
vn -0.010949 -0.624017 -0.781334
vn -0.010949 -0.624017 -0.781334
vn -0.010949 -0.624017 -0.781334
vn -0.010949 -0.624017 -0.781334
s off
g pCube14
usemtl initialShadingGroup
f 9/41/25 10/42/26 12/43/27 11/44/28
f 11/33/29 12/34/30 14/35/31 13/36/32
f 13/45/33 14/46/34 16/47/35 15/48/36
f 15/37/37 16/38/38 10/39/39 9/40/40
f 10/25/41 16/26/42 14/27/43 12/28/44
f 15/29/45 9/30/46 11/31/47 13/32/48
g default
v 2.832029 2.406451 -4.362118
v 2.833598 2.495837 -4.250198
v 2.832029 2.486926 -4.426390
v 2.833598 2.576312 -4.314470
v 10.197929 2.412567 -4.470226
v 10.199498 2.501953 -4.358306
v 10.197929 2.332092 -4.405955
v 10.199497 2.421478 -4.294035
vt 0.602126 1.000000
vt 0.596848 0.500014
vt 0.614529 0.500014
vt 0.619807 1.000000
vt 0.573442 1.000000
vt 0.578721 0.500014
vt 0.596402 0.500014
vt 0.591123 1.000000
vt 0.518831 0.000000
vt 0.589078 0.000000
vt 0.589077 0.500014
vt 0.518829 0.500014
vt 0.444712 0.000000
vt 0.514960 0.000000
vt 0.514958 0.500014
vt 0.444710 0.500014
vt 0.148237 0.640510
vt 0.148237 0.570262
vt 0.165918 0.570262
vt 0.165918 0.640510
vt 0.655363 0.640510
vt 0.655363 0.570262
vt 0.673044 0.570262
vt 0.673044 0.640510
vn -0.999940 0.006834 0.008557
vn -0.999940 0.006834 0.008557
vn -0.999940 0.006834 0.008557
vn -0.999940 0.006834 0.008557
vn 0.004174 0.781345 -0.624086
vn 0.004174 0.781345 -0.624086
vn 0.004174 0.781345 -0.624086
vn 0.004174 0.781345 -0.624086
vn 0.999940 -0.006833 -0.008550
vn 0.999940 -0.006833 -0.008550
vn 0.999940 -0.006833 -0.008550
vn 0.999940 -0.006833 -0.008550
vn -0.004174 -0.781345 0.624085
vn -0.004174 -0.781345 0.624085
vn -0.004174 -0.781345 0.624085
vn -0.004174 -0.781345 0.624085
vn 0.010949 0.624017 0.781334
vn 0.010949 0.624017 0.781334
vn 0.010949 0.624017 0.781334
vn 0.010949 0.624017 0.781334
vn -0.010949 -0.624018 -0.781333
vn -0.010949 -0.624018 -0.781333
vn -0.010949 -0.624018 -0.781333
vn -0.010949 -0.624018 -0.781333
s off
g pCube13
usemtl initialShadingGroup
f 17/65/49 18/66/50 20/67/51 19/68/52
f 19/57/53 20/58/54 22/59/55 21/60/56
f 21/69/57 22/70/58 24/71/59 23/72/60
f 23/61/61 24/62/62 18/63/63 17/64/64
f 18/49/65 24/50/66 22/51/67 20/52/68
f 23/53/69 17/54/70 19/55/71 21/56/72
g default
v 2.832029 4.083581 -2.043815
v 2.833598 4.172966 -1.931894
v 2.832029 4.164055 -2.108086
v 2.833598 4.253441 -1.996166
v 10.197928 4.089696 -2.151922
v 10.199497 4.179082 -2.040002
v 10.197928 4.009221 -2.087651
v 10.199498 4.098607 -1.975731
vt 0.531909 1.000000
vt 0.526631 0.500014
vt 0.544312 0.500014
vt 0.549590 1.000000
vt 0.550036 1.000000
vt 0.555315 0.500014
vt 0.572996 0.500014
vt 0.567717 1.000000
vt 0.222357 0.000000
vt 0.292605 0.000000
vt 0.292603 0.500014
vt 0.222355 0.500014
vt 0.074120 0.000000
vt 0.144368 0.000000
vt 0.144366 0.500014
vt 0.074118 0.500014
vt 0.674868 0.640510
vt 0.674867 0.570262
vt 0.692548 0.570262
vt 0.692548 0.640510
vt 0.674867 0.570262
vt 0.674868 0.500014
vt 0.692549 0.500014
vt 0.692548 0.570262
vn -0.999940 0.006837 0.008560
vn -0.999940 0.006837 0.008560
vn -0.999940 0.006837 0.008560
vn -0.999940 0.006837 0.008560
vn 0.004174 0.781345 -0.624085
vn 0.004174 0.781345 -0.624085
vn 0.004174 0.781345 -0.624085
vn 0.004174 0.781345 -0.624085
vn 0.999940 -0.006831 -0.008559
vn 0.999940 -0.006831 -0.008559
vn 0.999940 -0.006831 -0.008559
vn 0.999940 -0.006831 -0.008559
vn -0.004174 -0.781346 0.624083
vn -0.004174 -0.781346 0.624084
vn -0.004174 -0.781346 0.624083
vn -0.004174 -0.781346 0.624083
vn 0.010949 0.624018 0.781333
vn 0.010949 0.624018 0.781333
vn 0.010949 0.624018 0.781333
vn 0.010949 0.624018 0.781333
vn -0.010949 -0.624016 -0.781335
vn -0.010949 -0.624016 -0.781335
vn -0.010949 -0.624016 -0.781335
vn -0.010949 -0.624016 -0.781335
s off
g pCube12
usemtl initialShadingGroup
f 25/89/73 26/90/74 28/91/75 27/92/76
f 27/81/77 28/82/78 30/83/79 29/84/80
f 29/93/81 30/94/82 32/95/83 31/96/84
f 31/85/85 32/86/86 26/87/87 25/88/88
f 26/73/89 32/74/90 30/75/91 28/76/92
f 31/77/93 25/78/94 27/79/95 29/80/96
g default
v 2.832029 5.648438 0.181324
v 2.833598 5.737823 0.293244
v 2.832029 5.728912 0.117053
v 2.833598 5.818298 0.228973
v 10.197928 5.654553 0.073216
v 10.199497 5.743939 0.185137
v 10.197928 5.574078 0.137487
v 10.199497 5.663464 0.249408
vt 0.485097 1.000000
vt 0.479819 0.500014
vt 0.497500 0.500014
vt 0.502779 1.000000
vt 0.433007 1.000000
vt 0.438286 0.500014
vt 0.455967 0.500014
vt 0.450688 1.000000
vt 0.296475 0.000000
vt 0.366723 0.000000
vt 0.366722 0.500014
vt 0.296474 0.500014
vt 0.667067 0.000000
vt 0.737315 0.000000
vt 0.737313 0.500014
vt 0.667066 0.500014
vt 0.616353 0.570262
vt 0.616353 0.500014
vt 0.634034 0.500014
vt 0.634034 0.570262
vt 0.148237 0.570262
vt 0.148237 0.500014
vt 0.165918 0.500014
vt 0.165918 0.570262
vn -0.999940 0.006837 0.008560
vn -0.999940 0.006837 0.008560
vn -0.999940 0.006837 0.008560
vn -0.999940 0.006837 0.008560
vn 0.004174 0.781345 -0.624085
vn 0.004174 0.781345 -0.624085
vn 0.004174 0.781345 -0.624085
vn 0.004174 0.781345 -0.624085
vn 0.999940 -0.006834 -0.008557
vn 0.999940 -0.006834 -0.008557
vn 0.999940 -0.006834 -0.008557
vn 0.999940 -0.006834 -0.008557
vn -0.004174 -0.781345 0.624085
vn -0.004174 -0.781345 0.624085
vn -0.004174 -0.781345 0.624085
vn -0.004174 -0.781345 0.624085
vn 0.010949 0.624014 0.781336
vn 0.010949 0.624014 0.781336
vn 0.010949 0.624014 0.781336
vn 0.010949 0.624014 0.781336
vn -0.010949 -0.624017 -0.781334
vn -0.010949 -0.624017 -0.781334
vn -0.010949 -0.624017 -0.781334
vn -0.010949 -0.624017 -0.781334
s off
g pCube11
usemtl initialShadingGroup
f 33/113/97 34/114/98 36/115/99 35/116/100
f 35/105/101 36/106/102 38/107/103 37/108/104
f 37/117/105 38/118/106 40/119/107 39/120/108
f 39/109/109 40/110/110 34/111/111 33/112/112
f 34/97/113 40/98/114 38/99/115 36/100/116
f 39/101/117 33/102/118 35/103/119 37/104/120
g default
v 8.380800 8.560638 4.187025
v 9.719401 8.560638 4.187025
v 8.380800 8.823899 3.976770
v 9.719401 8.823899 3.976770
v 8.380800 0.184329 -8.203823
v 9.719401 0.184329 -8.203823
v 8.380800 -0.078932 -7.993567
v 9.719401 -0.078932 -7.993567
vt 0.171643 0.975760
vt 0.216279 0.500014
vt 0.233960 0.500014
vt 0.189324 0.975760
vt 0.348912 0.975760
vt 0.304275 0.500014
vt 0.321956 0.500014
vt 0.366593 0.975760
vt 0.741335 0.000000
vt 0.811583 0.000022
vt 0.811432 0.477858
vt 0.741184 0.477836
vt 0.815453 0.000000
vt 0.885701 0.000022
vt 0.885550 0.477858
vt 0.815302 0.477836
vt 0.963539 0.640482
vt 0.963539 0.570234
vt 0.981220 0.570234
vt 0.981220 0.640482
vt 0.713877 0.570262
vt 0.713877 0.500014
vt 0.731558 0.500014
vt 0.731558 0.570262
vn 0.000000 0.624055 0.781380
vn 0.000000 0.624055 0.781380
vn 0.000000 0.624055 0.781380
vn 0.000000 0.624055 0.781380
vn 0.000000 0.815656 -0.578537
vn 0.000000 0.815656 -0.578537
vn 0.000000 0.815656 -0.578537
vn 0.000000 0.815656 -0.578537
vn 0.000000 -0.624055 -0.781380
vn 0.000000 -0.624055 -0.781380
vn 0.000000 -0.624055 -0.781380
vn 0.000000 -0.624055 -0.781380
vn 0.000000 -0.815656 0.578537
vn 0.000000 -0.815656 0.578537
vn 0.000000 -0.815656 0.578537
vn 0.000000 -0.815656 0.578537
vn 1.000000 0.000000 0.000000
vn 1.000000 0.000000 0.000000
vn 1.000000 0.000000 0.000000
vn 1.000000 0.000000 0.000000
vn -1.000000 0.000000 0.000000
vn -1.000000 0.000000 0.000000
vn -1.000000 0.000000 0.000000
vn -1.000000 0.000000 0.000000
s off
g pCube10
usemtl initialShadingGroup
f 41/137/121 42/138/122 44/139/123 43/140/124
f 43/129/125 44/130/126 46/131/127 45/132/128
f 45/141/129 46/142/130 48/143/131 47/144/132
f 47/133/133 48/134/134 42/135/135 41/136/136
f 42/121/137 48/122/138 46/123/139 44/124/140
f 47/125/141 41/126/142 43/127/143 45/128/144
g default
v 6.650058 8.560638 4.187025
v 7.988657 8.560638 4.187025
v 6.650058 8.823899 3.976770
v 7.988657 8.823899 3.976770
v 6.650058 0.184329 -8.203823
v 7.988657 0.184329 -8.203823
v 6.650058 -0.078932 -7.993567
v 7.988657 -0.078932 -7.993567
vt 0.195048 0.975760
vt 0.239685 0.500014
vt 0.257366 0.500014
vt 0.212729 0.975760
vt 0.395724 0.975760
vt 0.351087 0.500014
vt 0.368768 0.500014
vt 0.413405 0.975760
vt 0.889572 0.000000
vt 0.959820 0.000022
vt 0.959669 0.477858
vt 0.889421 0.477836
vt 0.000151 0.500014
vt 0.070399 0.500036
vt 0.070248 0.977871
vt 0.000000 0.977849
vt 0.639759 0.710758
vt 0.639759 0.640510
vt 0.657440 0.640510
vt 0.657440 0.710758
vt 0.635858 0.640510
vt 0.635858 0.570262
vt 0.653539 0.570262
vt 0.653539 0.640510
vn 0.000000 0.624055 0.781380
vn 0.000000 0.624055 0.781380
vn 0.000000 0.624055 0.781380
vn 0.000000 0.624055 0.781380
vn 0.000000 0.815656 -0.578537
vn 0.000000 0.815656 -0.578537
vn 0.000000 0.815656 -0.578537
vn 0.000000 0.815656 -0.578537
vn 0.000000 -0.624055 -0.781380
vn 0.000000 -0.624055 -0.781380
vn 0.000000 -0.624055 -0.781380
vn 0.000000 -0.624055 -0.781380
vn 0.000000 -0.815656 0.578537
vn 0.000000 -0.815656 0.578537
vn 0.000000 -0.815656 0.578537
vn 0.000000 -0.815656 0.578537
vn 1.000000 0.000000 0.000000
vn 1.000000 0.000000 0.000000
vn 1.000000 0.000000 0.000000
vn 1.000000 0.000000 0.000000
vn -1.000000 0.000000 0.000000
vn -1.000000 0.000000 0.000000
vn -1.000000 0.000000 0.000000
vn -1.000000 0.000000 0.000000
s off
g pCube9
usemtl initialShadingGroup
f 49/161/145 50/162/146 52/163/147 51/164/148
f 51/153/149 52/154/150 54/155/151 53/156/152
f 53/165/153 54/166/154 56/167/155 55/168/156
f 55/157/157 56/158/158 50/159/159 49/160/160
f 50/145/161 56/146/162 54/147/163 52/148/164
f 55/149/165 49/150/166 51/151/167 53/152/168
g default
v 4.975534 8.560638 4.187025
v 6.314133 8.560638 4.187025
v 4.975534 8.823899 3.976770
v 6.314133 8.823899 3.976770
v 4.975534 0.184329 -8.203823
v 6.314133 0.184329 -8.203823
v 4.975534 -0.078932 -7.993567
v 6.314133 -0.078932 -7.993567
vt 0.218454 0.975760
vt 0.263091 0.500014
vt 0.280772 0.500014
vt 0.236135 0.975760
vt 0.372318 0.975760
vt 0.327681 0.500014
vt 0.345362 0.500014
vt 0.389999 0.975760
vt 0.889572 0.477837
vt 0.959820 0.477859
vt 0.959669 0.955694
vt 0.889421 0.955672
vt 0.074269 0.500014
vt 0.144517 0.500036
vt 0.144366 0.977871
vt 0.074118 0.977849
vt 0.620254 0.710758
vt 0.620254 0.640510
vt 0.637935 0.640510
vt 0.637935 0.710758
vt 0.616353 0.640510
vt 0.616353 0.570262
vt 0.634034 0.570262
vt 0.634034 0.640510
vn 0.000000 0.624055 0.781380
vn 0.000000 0.624055 0.781380
vn 0.000000 0.624055 0.781380
vn 0.000000 0.624055 0.781380
vn 0.000000 0.815656 -0.578537
vn 0.000000 0.815656 -0.578537
vn 0.000000 0.815656 -0.578537
vn 0.000000 0.815656 -0.578537
vn 0.000000 -0.624055 -0.781380
vn 0.000000 -0.624055 -0.781380
vn 0.000000 -0.624055 -0.781380
vn 0.000000 -0.624055 -0.781380
vn 0.000000 -0.815656 0.578537
vn 0.000000 -0.815656 0.578537
vn 0.000000 -0.815656 0.578537
vn 0.000000 -0.815656 0.578537
vn 1.000000 0.000000 0.000000
vn 1.000000 0.000000 0.000000
vn 1.000000 0.000000 0.000000
vn 1.000000 0.000000 0.000000
vn -1.000000 0.000000 0.000000
vn -1.000000 0.000000 0.000000
vn -1.000000 0.000000 0.000000
vn -1.000000 0.000000 0.000000
s off
g pCube8
usemtl initialShadingGroup
f 57/185/169 58/186/170 60/187/171 59/188/172
f 59/177/173 60/178/174 62/179/175 61/180/176
f 61/189/177 62/190/178 64/191/179 63/192/180
f 63/181/181 64/182/182 58/183/183 57/184/184
f 58/169/185 64/170/186 62/171/187 60/172/188
f 63/173/189 57/174/190 59/175/191 61/176/192
g default
v 2.832029 7.054508 2.137777
v 2.833598 7.143894 2.249697
v 2.832029 7.134983 2.073506
v 2.833598 7.224369 2.185426
v 10.197928 7.060624 2.029670
v 10.199497 7.150009 2.141589
v 10.197928 6.980149 2.093941
v 10.199497 7.069535 2.205861
vt 0.461692 1.000000
vt 0.456413 0.500014
vt 0.474094 0.500014
vt 0.479373 1.000000
vt 0.503225 1.000000
vt 0.508503 0.500014
vt 0.526184 0.500014
vt 0.520906 1.000000
vt 0.370594 0.000000
vt 0.440842 0.000000
vt 0.440839 0.500014
vt 0.370592 0.500014
vt 0.592949 0.000000
vt 0.663197 0.000000
vt 0.663195 0.500014
vt 0.592947 0.500014
vt 0.635858 0.570262
vt 0.635858 0.500014
vt 0.653539 0.500014
vt 0.653539 0.570262
vt 0.694372 0.570262
vt 0.694372 0.500014
vt 0.712053 0.500014
vt 0.712053 0.570262
vn -0.999940 0.006837 0.008560
vn -0.999940 0.006837 0.008560
vn -0.999940 0.006837 0.008560
vn -0.999940 0.006837 0.008560
vn 0.004174 0.781345 -0.624086
vn 0.004174 0.781345 -0.624086
vn 0.004174 0.781345 -0.624086
vn 0.004174 0.781345 -0.624086
vn 0.999940 -0.006833 -0.008556
vn 0.999940 -0.006833 -0.008556
vn 0.999940 -0.006833 -0.008556
vn 0.999940 -0.006833 -0.008556
vn -0.004174 -0.781345 0.624085
vn -0.004174 -0.781345 0.624085
vn -0.004174 -0.781345 0.624085
vn -0.004174 -0.781345 0.624085
vn 0.010949 0.624019 0.781332
vn 0.010949 0.624019 0.781332
vn 0.010949 0.624019 0.781332
vn 0.010949 0.624019 0.781332
vn -0.010949 -0.624016 -0.781335
vn -0.010949 -0.624016 -0.781335
vn -0.010949 -0.624016 -0.781335
vn -0.010949 -0.624016 -0.781335
s off
g pCube6
usemtl initialShadingGroup
f 65/209/193 66/210/194 68/211/195 67/212/196
f 67/201/197 68/202/198 70/203/199 69/204/200
f 69/213/201 70/214/202 72/215/203 71/216/204
f 71/205/205 72/206/206 66/207/207 65/208/208
f 66/193/209 72/194/210 70/195/211 68/196/212
f 71/197/213 65/198/214 67/199/215 69/200/216
