# This file uses centimeters as units for non-parametric coordinates.

mtllib barrier.mtl
g default
v -2.174850 3.304652 3.322905
v 4.293218 3.304652 3.322905
v -2.174850 4.393790 2.715131
v 4.293218 4.393790 2.715131
v -2.174850 4.270986 2.495066
v 4.293218 4.270986 2.495066
v -2.174850 3.181848 3.102840
v 4.293218 3.181848 3.102840
v 2.866794 0.000000 4.605897
v 3.519962 0.000000 4.605897
v 2.866794 4.813046 2.417706
v 3.519962 4.813046 2.417706
v 2.866794 4.813046 1.983584
v 3.519962 4.813046 1.983584
v 2.866794 0.000000 4.171776
v 3.519962 0.000000 4.171776
v -2.207593 3.181848 0.782023
v 4.260475 3.181848 0.782023
v -2.207593 4.270986 1.389799
v 4.260475 4.270986 1.389799
v -2.207593 4.393789 1.169733
v 4.260475 4.393789 1.169733
v -2.207593 3.304652 0.561958
v 4.260475 3.304652 0.561958
v -0.990033 4.814955 1.950163
v -1.643200 4.814955 1.950163
v -0.990033 0.001909 -0.238028
v -1.643200 0.001909 -0.238028
v -0.990033 0.001909 -0.672150
v -1.643200 0.001909 -0.672150
v -0.990033 4.814955 1.516042
v -1.643200 4.814955 1.516042
v 3.549664 4.814955 1.950163
v 2.896497 4.814955 1.950163
v 3.549664 0.001909 -0.238028
v 2.896497 0.001909 -0.238028
v 3.549664 0.001909 -0.672150
v 2.896497 0.001909 -0.672150
v 3.549664 4.814955 1.516042
v 2.896497 4.814955 1.516042
v -2.174850 1.621349 4.055000
v 4.293218 1.621349 4.055000
v -2.174850 2.710487 3.447226
v 4.293218 2.710487 3.447226
v -2.174850 2.587684 3.227160
v 4.293218 2.587684 3.227160
v -2.174850 1.498545 3.834934
v 4.293218 1.498545 3.834934
v -1.639808 0.000000 4.605897
v -0.986641 0.000000 4.605897
v -1.639808 4.813046 2.417706
v -0.986641 4.813046 2.417706
v -1.639808 4.813046 1.983584
v -0.986641 4.813046 1.983584
v -1.639808 0.000000 4.171776
v -0.986641 0.000000 4.171776
v -2.207593 1.530514 -0.013259
v 4.260475 1.530514 -0.013259
v -2.207593 2.619651 0.594516
v 4.260475 2.619651 0.594516
v -2.207593 2.742455 0.374451
v 4.260475 2.742455 0.374451
v -2.207593 1.653318 -0.233324
v 4.260475 1.653318 -0.233324
vt 0.969481 0.251086
vt 0.972987 0.583746
vt 0.908839 0.584422
vt 0.905334 0.251762
vt 0.144963 0.111105
vt 0.550354 0.109996
vt 0.559140 0.122763
vt 0.135172 0.124240
vt 0.028463 0.714069
vt 0.425435 0.719106
vt 0.424464 0.795654
vt 0.027492 0.790617
vt 0.134746 0.018001
vt 0.558714 0.016524
vt 0.548923 0.029658
vt 0.143532 0.030768
vt 0.069742 0.685259
vt 0.068478 0.622199
vt 0.374054 0.616073
vt 0.375318 0.679133
vt 0.302428 0.219521
vt 0.369337 0.222364
vt 0.368206 0.248986
vt 0.301297 0.246143
vt 0.589808 0.666507
vt 0.588811 0.599545
vt 0.913293 0.594710
vt 0.914291 0.661672
vt 0.670194 0.100719
vt 0.669062 0.127341
vt 0.011846 0.099412
vt 0.012977 0.072790
vt 0.548213 0.828304
vt 0.945204 0.825112
vt 0.945820 0.901664
vt 0.548828 0.904856
vt 0.216875 0.397270
vt 0.465457 0.395168
vt 0.459764 0.402904
vt 0.222052 0.404735
vt 0.571678 0.015551
vt 0.968682 0.015142
vt 0.968761 0.091697
vt 0.571757 0.092105
vt 0.223136 0.451827
vt 0.460848 0.449997
vt 0.466024 0.457462
vt 0.217443 0.459563
vt 0.454206 0.528724
vt 0.521174 0.528962
vt 0.520025 0.853478
vt 0.453056 0.853241
vt 0.896337 0.581901
vt 0.829377 0.583010
vt 0.824001 0.258536
vt 0.890961 0.257427
vt 0.370896 0.316497
vt 0.303932 0.315635
vt 0.304275 0.288992
vt 0.371239 0.289854
vt 0.006807 0.446132
vt 0.007150 0.419488
vt 0.664906 0.427954
vt 0.664563 0.454598
vt 0.914581 0.747882
vt 0.915642 0.814843
vt 0.591164 0.819984
vt 0.590103 0.753023
vt 0.739814 0.589431
vt 0.672854 0.590541
vt 0.667479 0.266067
vt 0.734439 0.264958
vt 0.370896 0.344967
vt 0.303932 0.344105
vt 0.304275 0.317461
vt 0.371239 0.318323
vt 0.006807 0.474601
vt 0.007150 0.447957
vt 0.664906 0.456423
vt 0.664563 0.483067
vt 0.560106 0.915356
vt 0.957108 0.913974
vt 0.957375 0.990528
vt 0.560373 0.991910
vt 0.020642 0.572176
vt 0.426024 0.575067
vt 0.434684 0.587921
vt 0.010723 0.585213
vt 0.037861 0.803553
vt 0.434850 0.807007
vt 0.434184 0.883559
vt 0.037195 0.880105
vt 0.011345 0.478975
vt 0.435306 0.481682
vt 0.425386 0.494720
vt 0.020004 0.491828
vt 0.744341 0.263739
vt 0.811302 0.262630
vt 0.816677 0.587104
vt 0.749717 0.588213
vt 0.305846 0.250619
vt 0.372755 0.253463
vt 0.371623 0.280085
vt 0.304715 0.277242
vt 0.589700 0.742972
vt 0.588560 0.676013
vt 0.913032 0.670491
vt 0.914171 0.737451
vt 0.673611 0.131818
vt 0.672480 0.158440
vt 0.015263 0.130510
vt 0.016395 0.103888
vt 0.046427 0.904044
vt 0.443419 0.900852
vt 0.444034 0.977404
vt 0.047043 0.980597
vt 0.009300 0.599746
vt 0.433245 0.596162
vt 0.423534 0.609355
vt 0.018130 0.612477
vt 0.691402 0.187972
vt 0.976764 0.187678
vt 0.976820 0.242705
vt 0.691458 0.242998
vt 0.019979 0.692790
vt 0.425384 0.689669
vt 0.434211 0.702401
vt 0.010269 0.705984
vn 0.000000 0.487295 0.873238
vn 0.000000 0.487295 0.873238
vn 0.000000 0.487295 0.873238
vn 0.000000 0.487295 0.873238
vn 0.000000 0.873238 -0.487295
vn 0.000000 0.873238 -0.487295
vn 0.000000 0.873238 -0.487295
vn 0.000000 0.873238 -0.487295
vn 0.000000 -0.487294 -0.873238
vn 0.000000 -0.487294 -0.873238
vn 0.000000 -0.487294 -0.873238
vn 0.000000 -0.487294 -0.873238
vn 0.000000 -0.873237 0.487296
vn 0.000000 -0.873237 0.487296
vn 0.000000 -0.873237 0.487296
vn 0.000000 -0.873237 0.487296
vn 1.000000 0.000000 0.000000
vn 1.000000 0.000000 0.000000
vn 1.000000 0.000000 0.000000
vn 1.000000 0.000000 0.000000
vn -1.000000 0.000000 0.000000
vn -1.000000 0.000000 0.000000
vn -1.000000 0.000000 0.000000
vn -1.000000 0.000000 0.000000
vn 0.000000 0.413872 0.910335
vn 0.000000 0.413872 0.910335
vn 0.000000 0.413872 0.910335
vn 0.000000 0.413872 0.910335
vn 0.000000 1.000000 0.000000
vn 0.000000 1.000000 0.000000
vn 0.000000 1.000000 0.000000
vn 0.000000 1.000000 0.000000
vn 0.000000 -0.413873 -0.910335
vn 0.000000 -0.413873 -0.910335
vn 0.000000 -0.413873 -0.910335
vn 0.000000 -0.413873 -0.910335
vn 1.000000 0.000000 0.000000
vn 1.000000 0.000000 0.000000
vn 1.000000 0.000000 0.000000
vn 1.000000 0.000000 0.000000
vn -1.000000 0.000000 0.000000
vn -1.000000 0.000000 0.000000
vn -1.000000 0.000000 0.000000
vn -1.000000 0.000000 0.000000
vn 0.000000 -0.487296 0.873237
vn 0.000000 -0.487296 0.873237
vn 0.000000 -0.487296 0.873237
vn 0.000000 -0.487296 0.873237
vn 0.000000 0.873238 0.487294
vn 0.000000 0.873238 0.487294
vn 0.000000 0.873238 0.487294
vn 0.000000 0.873238 0.487294
vn 0.000000 0.487296 -0.873237
vn 0.000000 0.487296 -0.873237
vn 0.000000 0.487296 -0.873237
vn 0.000000 0.487296 -0.873237
vn 0.000000 -0.873237 -0.487296
vn 0.000000 -0.873237 -0.487296
vn 0.000000 -0.873237 -0.487296
vn 0.000000 -0.873237 -0.487296
vn 1.000000 0.000000 0.000000
vn 1.000000 0.000000 0.000000
vn 1.000000 0.000000 0.000000
vn 1.000000 0.000000 0.000000
vn -1.000000 0.000000 0.000000
vn -1.000000 0.000000 0.000000
vn -1.000000 0.000000 0.000000
vn -1.000000 0.000000 0.000000
vn 0.000000 -0.413872 0.910335
vn 0.000000 -0.413872 0.910335
vn 0.000000 -0.413872 0.910335
vn 0.000000 -0.413872 0.910335
vn 0.000000 0.413872 -0.910335
vn 0.000000 0.413872 -0.910335
vn 0.000000 0.413872 -0.910335
vn 0.000000 0.413872 -0.910335
vn 0.000000 1.000000 0.000000
vn 0.000000 1.000000 0.000000
vn 0.000000 1.000000 0.000000
vn 0.000000 1.000000 0.000000
vn -1.000000 0.000000 0.000000
vn -1.000000 0.000000 0.000000
vn -1.000000 0.000000 0.000000
vn -1.000000 0.000000 0.000000
vn 1.000000 0.000000 0.000000
vn 1.000000 0.000000 0.000000
vn 1.000000 0.000000 0.000000
vn 1.000000 0.000000 0.000000
vn 0.000000 -0.413872 0.910335
vn 0.000000 -0.413872 0.910335
vn 0.000000 -0.413872 0.910335
vn 0.000000 -0.413872 0.910335
vn 0.000000 0.413872 -0.910335
vn 0.000000 0.413872 -0.910335
vn 0.000000 0.413872 -0.910335
vn 0.000000 0.413872 -0.910335
vn 0.000000 1.000000 0.000000
vn 0.000000 1.000000 0.000000
vn 0.000000 1.000000 0.000000
vn 0.000000 1.000000 0.000000
vn -1.000000 0.000000 0.000000
vn -1.000000 0.000000 0.000000
vn -1.000000 0.000000 0.000000
vn -1.000000 0.000000 0.000000
vn 1.000000 0.000000 0.000000
vn 1.000000 0.000000 0.000000
vn 1.000000 0.000000 0.000000
vn 1.000000 0.000000 0.000000
vn 0.000000 0.487295 0.873238
vn 0.000000 0.487295 0.873238
vn 0.000000 0.487295 0.873238
vn 0.000000 0.487295 0.873238
vn 0.000000 0.873238 -0.487295
vn 0.000000 0.873238 -0.487295
vn 0.000000 0.873238 -0.487295
vn 0.000000 0.873238 -0.487295
vn 0.000000 -0.487294 -0.873238
vn 0.000000 -0.487294 -0.873238
vn 0.000000 -0.487294 -0.873238
vn 0.000000 -0.487294 -0.873238
vn 0.000000 -0.873237 0.487296
vn 0.000000 -0.873237 0.487296
vn 0.000000 -0.873237 0.487296
vn 0.000000 -0.873237 0.487296
vn 1.000000 0.000000 0.000000
vn 1.000000 0.000000 0.000000
vn 1.000000 0.000000 0.000000
vn 1.000000 0.000000 0.000000
vn -1.000000 0.000000 0.000000
vn -1.000000 0.000000 0.000000
vn -1.000000 0.000000 0.000000
vn -1.000000 0.000000 0.000000
vn 0.000000 0.413872 0.910335
vn 0.000000 0.413872 0.910335
vn 0.000000 0.413872 0.910335
vn 0.000000 0.413872 0.910335
vn 0.000000 1.000000 0.000000
vn 0.000000 1.000000 0.000000
vn 0.000000 1.000000 0.000000
vn 0.000000 1.000000 0.000000
vn 0.000000 -0.413873 -0.910335
vn 0.000000 -0.413873 -0.910335
vn 0.000000 -0.413873 -0.910335
vn 0.000000 -0.413873 -0.910335
vn 1.000000 0.000000 0.000000
vn 1.000000 0.000000 0.000000
vn 1.000000 0.000000 0.000000
vn 1.000000 0.000000 0.000000
vn -1.000000 0.000000 0.000000
vn -1.000000 0.000000 0.000000
vn -1.000000 0.000000 0.000000
vn -1.000000 0.000000 0.000000
vn 0.000000 -0.487296 0.873237
vn 0.000000 -0.487296 0.873237
vn 0.000000 -0.487296 0.873237
vn 0.000000 -0.487296 0.873237
vn 0.000000 0.873238 0.487294
vn 0.000000 0.873238 0.487294
vn 0.000000 0.873238 0.487294
vn 0.000000 0.873238 0.487294
vn 0.000000 0.487296 -0.873237
vn 0.000000 0.487296 -0.873237
vn 0.000000 0.487296 -0.873237
vn 0.000000 0.487296 -0.873237
vn 0.000000 -0.873237 -0.487296
vn 0.000000 -0.873237 -0.487296
vn 0.000000 -0.873237 -0.487296
vn 0.000000 -0.873237 -0.487296
vn 1.000000 0.000000 0.000000
vn 1.000000 0.000000 0.000000
vn 1.000000 0.000000 0.000000
vn 1.000000 0.000000 0.000000
vn -1.000000 0.000000 0.000000
vn -1.000000 0.000000 0.000000
vn -1.000000 0.000000 0.000000
vn -1.000000 0.000000 0.000000
s off
g barrier:pCube13
usemtl barrier:initialShadingGroup
f 1/1/1 2/2/2 4/3/3 3/4/4
f 3/5/5 4/6/6 6/7/7 5/8/8
f 5/9/9 6/10/10 8/11/11 7/12/12
f 7/13/13 8/14/14 2/15/15 1/16/16
f 2/15/17 8/14/18 6/7/19 4/6/20
f 7/13/21 1/16/22 3/5/23 5/8/24
f 9/17/25 10/18/26 12/19/27 11/20/28
f 11/21/29 12/22/30 14/23/31 13/24/32
f 13/25/33 14/26/34 16/27/35 15/28/36
f 10/29/37 16/30/38 14/23/39 12/22/40
f 15/31/41 9/32/42 11/21/43 13/24/44
f 17/33/45 18/34/46 20/35/47 19/36/48
f 19/37/49 20/38/50 22/39/51 21/40/52
f 21/41/53 22/42/54 24/43/55 23/44/56
f 23/45/57 24/46/58 18/47/59 17/48/60
f 18/47/61 24/46/62 22/39/63 20/38/64
f 23/45/65 17/48/66 19/37/67 21/40/68
f 25/49/69 26/50/70 28/51/71 27/52/72
f 29/53/73 30/54/74 32/55/75 31/56/76
f 31/57/77 32/58/78 26/59/79 25/60/80
f 26/59/81 32/58/82 30/61/83 28/62/84
f 31/57/85 25/60/86 27/63/87 29/64/88
f 33/65/89 34/66/90 36/67/91 35/68/92
f 37/69/93 38/70/94 40/71/95 39/72/96
f 39/73/97 40/74/98 34/75/99 33/76/100
f 34/75/101 40/74/102 38/77/103 36/78/104
f 39/73/105 33/76/106 35/79/107 37/80/108
f 41/81/109 42/82/110 44/83/111 43/84/112
f 43/85/113 44/86/114 46/87/115 45/88/116
f 45/89/117 46/90/118 48/91/119 47/92/120
f 47/93/121 48/94/122 42/95/123 41/96/124
f 42/95/125 48/94/126 46/87/127 44/86/128
f 47/93/129 41/96/130 43/85/131 45/88/132
f 49/97/133 50/98/134 52/99/135 51/100/136
f 51/101/137 52/102/138 54/103/139 53/104/140
f 53/105/141 54/106/142 56/107/143 55/108/144
f 50/109/145 56/110/146 54/103/147 52/102/148
f 55/111/149 49/112/150 51/101/151 53/104/152
f 57/113/153 58/114/154 60/115/155 59/116/156
f 59/117/157 60/118/158 62/119/159 61/120/160
f 61/121/161 62/122/162 64/123/163 63/124/164
f 63/125/165 64/126/166 58/127/167 57/128/168
f 58/127/169 64/126/170 62/119/171 60/118/172
f 63/125/173 57/128/174 59/117/175 61/120/176
