# This file uses meters as units for non-parametric coordinates.

mtllib signal light.mtl
g default
v -49.760837 -0.551475 -79.040923
v -50.589335 -0.551475 -79.040923
v -51.003590 -0.551475 -78.323414
v -50.589335 -0.551475 -77.605905
v -49.760837 -0.551475 -77.605905
v -49.350072 -0.551475 -78.323414
v -49.760837 49.350273 -79.040923
v -50.589335 49.350273 -79.040923
v -51.003595 49.350273 -78.323414
v -50.589335 49.350273 -77.605905
v -49.760837 49.350273 -77.605905
v -49.343089 49.350273 -78.323414
v -5.383748 53.450749 -79.040928
v -5.383748 54.279253 -79.040923
v -5.383748 54.693510 -78.323414
v -5.383748 54.279253 -77.605905
v -5.383748 53.450749 -77.605905
v -5.383748 53.033004 -78.323414
v -46.315660 54.279253 -77.605905
v -46.315660 54.693499 -78.323414
v -46.315660 54.279253 -79.040923
v -46.315660 53.450749 -79.040923
v -46.315660 53.036491 -78.323414
v -46.315660 53.450749 -77.605905
v -48.993978 52.519444 -77.605905
v -49.268973 52.829257 -78.323414
v -48.993978 52.519444 -79.040923
v -48.443984 51.899818 -79.040923
v -48.170149 51.591310 -78.323414
v -48.443984 51.899818 -77.605905
v -24.625401 51.985372 -77.593393
v -24.625401 51.985372 -76.341151
v -24.625401 55.975018 -76.341151
v -24.625401 55.975018 -77.593393
v -6.199270 55.975023 -76.341151
v -6.199270 55.975018 -77.593393
v -6.199281 51.985372 -77.593393
v -6.199281 51.985372 -76.341151
v -7.331957 55.357446 -76.409901
v -8.762330 55.683923 -76.409901
v -9.909403 54.769165 -76.409901
v -9.909403 53.302000 -76.409901
v -8.762330 52.387242 -76.409901
v -7.331957 52.713719 -76.409901
v -6.695379 54.035582 -76.409901
v -7.331957 55.357446 -76.022780
v -8.762330 55.683923 -76.022780
v -9.909403 54.769165 -76.022780
v -9.909403 53.302000 -76.022780
v -8.762330 52.387242 -76.022780
v -7.331957 52.713719 -76.022780
v -6.695379 54.035582 -76.022780
v -48.890008 25.261653 -76.409901
v -50.243891 25.826947 -76.409901
v -51.529991 25.120898 -76.409901
v -51.779849 23.675169 -76.409901
v -50.805315 22.578427 -76.409901
v -49.340238 22.656541 -76.409901
v -48.487844 23.850681 -76.409901
v -48.890008 25.261653 -76.022780
v -50.243891 25.826947 -76.022780
v -51.529991 25.120898 -76.022780
v -51.779849 23.675169 -76.022780
v -50.805315 22.578427 -76.022780
v -49.340238 22.656541 -76.022780
v -48.487844 23.850681 -76.022780
v -14.333423 55.357446 -76.409901
v -15.763802 55.683923 -76.409901
v -16.910875 54.769165 -76.409901
v -16.910875 53.302000 -76.409901
v -15.763802 52.387242 -76.409901
v -14.333429 52.713719 -76.409901
v -13.696850 54.035582 -76.409901
v -14.333423 55.357446 -76.022780
v -15.763802 55.683923 -76.022780
v -16.910875 54.769165 -76.022780
v -16.910875 53.302000 -76.022780
v -15.763802 52.387242 -76.022780
v -14.333429 52.713719 -76.022780
v -13.696850 54.035582 -76.022780
v -21.097221 55.357446 -76.409901
v -22.527600 55.683923 -76.409901
v -23.674673 54.769165 -76.409901
v -23.674673 53.302000 -76.409901
v -22.527600 52.387242 -76.409901
v -21.097227 52.713719 -76.409901
v -20.460649 54.035582 -76.409901
v -21.097221 55.357446 -76.022780
v -22.527600 55.683923 -76.022780
v -23.674673 54.769165 -76.022780
v -23.674673 53.302000 -76.022780
v -22.527600 52.387242 -76.022780
v -21.097227 52.713719 -76.022780
v -20.460649 54.035582 -76.022780
v -48.141129 20.623803 -77.593393
v -48.141129 20.623803 -76.341151
v -52.130774 20.623803 -76.341151
v -52.130774 20.623803 -77.593393
v -52.130779 38.849798 -76.341151
v -52.130774 38.849798 -77.593393
v -48.141129 38.849793 -77.593393
v -48.141129 38.849793 -76.341151
v -48.890008 31.346224 -76.409901
v -50.243891 31.911523 -76.409901
v -51.529991 31.205468 -76.409901
v -51.779849 29.759737 -76.409901
v -50.805315 28.662998 -76.409901
v -49.340238 28.741109 -76.409901
v -48.487844 29.935257 -76.409901
v -48.890008 31.346224 -76.022780
v -50.243891 31.911523 -76.022780
v -51.529991 31.205468 -76.022780
v -51.779849 29.759737 -76.022780
v -50.805315 28.662998 -76.022780
v -49.340238 28.741109 -76.022780
v -48.487844 29.935257 -76.022780
v -48.890008 37.172276 -76.344673
v -50.243891 37.737576 -76.344673
v -51.529991 37.031520 -76.344673
v -51.779849 35.585792 -76.344673
v -50.805315 34.489050 -76.344673
v -49.340238 34.567164 -76.344673
v -48.487844 35.761310 -76.344673
v -48.890008 37.172276 -75.957553
v -50.243891 37.737576 -75.957553
v -51.529991 37.031520 -75.957553
v -51.779849 35.585792 -75.957553
v -50.805315 34.489050 -75.957553
v -49.340238 34.567164 -75.957553
v -48.487844 35.761310 -75.957553
vt 0.000000 0.000000
vt 0.062558 0.000000
vt 0.062558 0.564433
vt 0.000000 0.564433
vt 0.125116 0.000000
vt 0.125116 0.564433
vt 0.187674 0.000000
vt 0.187674 0.564433
vt 0.250232 0.000000
vt 0.250232 0.564433
vt 0.312790 0.000000
vt 0.312790 0.564433
vt 0.375348 0.000000
vt 0.375348 0.564433
vt 0.375636 0.000000
vt 0.436220 0.000000
vt 0.436220 0.136655
vt 0.375636 0.136655
vt 0.496804 0.000000
vt 0.496804 0.136655
vt 0.557388 0.000000
vt 0.557387 0.136655
vt 0.617971 0.000000
vt 0.617971 0.136655
vt 0.678555 0.000000
vt 0.678555 0.136655
vt 0.739139 0.000000
vt 0.739139 0.136655
vt 0.496804 0.546621
vt 0.496804 0.273311
vt 0.557387 0.273311
vt 0.557388 0.546621
vt 0.436220 0.546621
vt 0.436220 0.273311
vt 0.375636 0.546621
vt 0.375636 0.273311
vt 0.678555 0.546621
vt 0.678555 0.273311
vt 0.739139 0.273311
vt 0.739139 0.546621
vt 0.617971 0.546621
vt 0.617971 0.273311
vt 0.888930 0.148093
vt 0.888930 0.000000
vt 1.000000 0.000000
vt 1.000000 0.148093
vt 0.888930 0.296185
vt 1.000000 0.296185
vt 0.888930 0.444278
vt 1.000000 0.444278
vt 0.740838 0.000000
vt 0.740838 0.148093
vt 1.000000 0.592371
vt 0.897353 0.623114
vt 0.907026 0.623114
vt 0.907026 0.724935
vt 0.897353 0.724935
vt 0.916699 0.623114
vt 0.916699 0.724935
vt 0.926372 0.623114
vt 0.926372 0.724935
vt 0.936045 0.623114
vt 0.936045 0.724935
vt 0.945718 0.623114
vt 0.945718 0.724935
vt 0.955391 0.623114
vt 0.955391 0.724935
vt 0.965064 0.623114
vt 0.965064 0.724935
vt 0.620776 0.615258
vt 0.594267 0.670304
vt 0.534703 0.683900
vt 0.486936 0.645807
vt 0.486936 0.584710
vt 0.534703 0.546617
vt 0.594267 0.560212
vt 0.740838 0.521293
vt 0.750511 0.521293
vt 0.750511 0.623114
vt 0.740838 0.623114
vt 0.760184 0.521293
vt 0.760184 0.623114
vt 0.769857 0.521293
vt 0.769857 0.623114
vt 0.779530 0.521293
vt 0.779530 0.623114
vt 0.789203 0.521293
vt 0.789203 0.623114
vt 0.798876 0.521293
vt 0.798876 0.623114
vt 0.808549 0.521293
vt 0.808549 0.623114
vt 0.485130 0.615258
vt 0.458621 0.670304
vt 0.399056 0.683900
vt 0.351289 0.645807
vt 0.351289 0.584710
vt 0.399056 0.546617
vt 0.458621 0.560212
vt 0.897353 0.521293
vt 0.907026 0.521293
vt 0.907026 0.623114
vt 0.897353 0.623114
vt 0.916699 0.521293
vt 0.916699 0.623114
vt 0.926372 0.521293
vt 0.926372 0.623114
vt 0.936045 0.521293
vt 0.936045 0.623114
vt 0.945718 0.521293
vt 0.945718 0.623114
vt 0.955391 0.521293
vt 0.955391 0.623114
vt 0.965064 0.521293
vt 0.965064 0.623114
vt 0.874678 0.216730
vt 0.848170 0.271776
vt 0.788605 0.285371
vt 0.740838 0.247278
vt 0.740838 0.186182
vt 0.788605 0.148089
vt 0.848170 0.161684
vt 0.622582 0.546621
vt 0.632255 0.546621
vt 0.632255 0.648442
vt 0.622582 0.648442
vt 0.641928 0.546621
vt 0.641928 0.648442
vt 0.651601 0.546621
vt 0.651601 0.648442
vt 0.661274 0.546621
vt 0.661274 0.648442
vt 0.670947 0.546621
vt 0.670947 0.648442
vt 0.680620 0.546621
vt 0.680620 0.648442
vt 0.690293 0.546621
vt 0.690293 0.648442
vt 0.133840 0.633071
vt 0.107332 0.688117
vt 0.047767 0.701712
vt 0.000000 0.663619
vt 0.000000 0.602522
vt 0.047767 0.564429
vt 0.107332 0.578025
vt 0.888930 0.148093
vt 0.888930 0.000000
vt 1.000000 0.000000
vt 1.000000 0.148093
vt 0.888930 0.296185
vt 1.000000 0.296185
vt 0.888930 0.444278
vt 1.000000 0.444278
vt 0.740838 0.000000
vt 0.740838 0.148093
vt 1.000000 0.592371
vt 0.740838 0.521293
vt 0.750511 0.521293
vt 0.750511 0.623114
vt 0.740838 0.623114
vt 0.760184 0.521293
vt 0.760184 0.623114
vt 0.769857 0.521293
vt 0.769857 0.623114
vt 0.779530 0.521293
vt 0.779530 0.623114
vt 0.789203 0.521293
vt 0.789203 0.623114
vt 0.798876 0.521293
vt 0.798876 0.623114
vt 0.808549 0.521293
vt 0.808549 0.623114
vt 0.485130 0.866234
vt 0.458621 0.921280
vt 0.399056 0.934875
vt 0.351289 0.896782
vt 0.351289 0.835686
vt 0.399056 0.797593
vt 0.458621 0.811188
vt 0.740838 0.521293
vt 0.750511 0.521293
vt 0.750511 0.623114
vt 0.740838 0.623114
vt 0.760184 0.521293
vt 0.760184 0.623114
vt 0.769857 0.521293
vt 0.769857 0.623114
vt 0.779530 0.521293
vt 0.779530 0.623114
vt 0.789203 0.521293
vt 0.789203 0.623114
vt 0.798876 0.521293
vt 0.798876 0.623114
vt 0.808549 0.521293
vt 0.808549 0.623114
vt 0.339137 0.853111
vt 0.312629 0.908157
vt 0.253064 0.921752
vt 0.205297 0.883659
vt 0.205297 0.822563
vt 0.253064 0.784470
vt 0.312629 0.798065
vn 0.000000 0.000000 -1.000000
vn 0.000000 0.000000 -1.000000
vn 0.000000 0.000000 -1.000000
vn 0.000000 0.000000 -1.000000
vn -0.866025 0.000000 -0.500000
vn -0.866025 0.000000 -0.500000
vn -0.866025 0.000000 -0.500000
vn -0.866025 0.000000 -0.500000
vn -0.866025 0.000000 0.500000
vn -0.866025 0.000000 0.500000
vn -0.866025 0.000000 0.500000
vn -0.866025 0.000000 0.500000
vn 0.000000 0.000000 1.000000
vn 0.000000 0.000000 1.000000
vn 0.000000 0.000000 1.000000
vn 0.000000 0.000000 1.000000
vn 0.866025 -0.000061 0.500000
vn 0.866025 -0.000061 0.500000
vn 0.866025 -0.000061 0.500000
vn 0.866025 -0.000061 0.500000
vn 0.866024 -0.000061 -0.500002
vn 0.866024 -0.000061 -0.500002
vn 0.866024 -0.000061 -0.500002
vn 0.866024 -0.000061 -0.500002
vn 0.000002 -0.000002 -1.000000
vn 0.000002 -0.000002 -1.000000
vn 0.000001 -0.000001 -1.000000
vn 0.000001 -0.000001 -1.000000
vn -0.791271 0.396340 -0.465623
vn -0.791271 0.396339 -0.465623
vn -0.655365 0.583560 -0.479535
vn -0.666542 0.570882 -0.479391
vn -0.791271 0.396340 0.465623
vn -0.791271 0.396339 0.465623
vn -0.666542 0.570882 0.479391
vn -0.655365 0.583560 0.479535
vn 0.000000 0.000000 1.000000
vn 0.000000 0.000000 1.000000
vn 0.000000 0.000000 1.000000
vn 0.000000 0.000000 1.000000
vn 0.785056 -0.408015 0.466059
vn 0.785056 -0.408015 0.466059
vn 0.683423 -0.556796 0.472135
vn 0.672147 -0.570550 0.471902
vn 0.785055 -0.408014 -0.466061
vn 0.785055 -0.408014 -0.466061
vn 0.672146 -0.570550 -0.471903
vn 0.683423 -0.556796 -0.472136
vn 0.000000 0.866026 0.500000
vn -0.029985 0.864615 0.501540
vn -0.041642 0.863855 0.502017
vn 0.000000 0.866026 0.500000
vn 0.000000 0.866026 -0.500000
vn -0.041642 0.863855 -0.502017
vn -0.029985 0.864615 -0.501540
vn 0.000000 0.866026 -0.500000
vn 0.000000 0.000001 -1.000000
vn 0.000000 0.000001 -1.000000
vn 0.000000 0.000001 -1.000000
vn 0.000000 0.000001 -1.000000
vn -0.000037 -0.865111 -0.501581
vn 0.035750 -0.863163 -0.503659
vn 0.024595 -0.863889 -0.503081
vn -0.000037 -0.865111 -0.501581
vn -0.000037 -0.865111 0.501581
vn 0.024595 -0.863889 0.503081
vn 0.035750 -0.863162 0.503659
vn -0.000037 -0.865111 0.501581
vn 0.000000 0.000000 1.000000
vn 0.000000 0.000000 1.000000
vn 0.000000 0.000000 1.000000
vn 0.000000 0.000000 1.000000
vn -0.655365 0.583560 0.479535
vn -0.666542 0.570882 0.479391
vn -0.041642 0.863855 0.502017
vn -0.029985 0.864615 0.501540
vn -0.666542 0.570882 -0.479391
vn -0.655365 0.583560 -0.479535
vn -0.029985 0.864615 -0.501540
vn -0.041642 0.863855 -0.502017
vn 0.000001 -0.000001 -1.000000
vn 0.000001 -0.000001 -1.000000
vn 0.000000 0.000001 -1.000000
vn 0.000000 0.000001 -1.000000
vn 0.683423 -0.556796 -0.472136
vn 0.672146 -0.570550 -0.471903
vn 0.024595 -0.863889 -0.503081
vn 0.035750 -0.863163 -0.503659
vn 0.672147 -0.570550 0.471902
vn 0.683423 -0.556796 0.472135
vn 0.035750 -0.863162 0.503659
vn 0.024595 -0.863889 0.503081
vn 0.000000 0.000000 1.000000
vn 0.000000 0.000000 1.000000
vn 0.000000 0.000000 1.000000
vn 0.000000 0.000000 1.000000
vn 0.000000 -1.000000 0.000000
vn 0.000000 -1.000000 0.000000
vn 0.000000 -1.000000 0.000000
vn 0.000000 -1.000000 0.000000
vn 0.000000 0.000000 1.000000
vn 0.000000 0.000000 1.000000
vn 0.000000 0.000000 1.000000
vn 0.000000 0.000000 1.000000
vn 0.000000 1.000000 0.000000
vn 0.000000 1.000000 0.000000
vn 0.000000 1.000000 0.000000
vn 0.000000 1.000000 0.000000
vn -1.000000 0.000000 0.000000
vn -1.000000 0.000000 0.000000
vn -1.000000 0.000000 0.000000
vn -1.000000 0.000000 0.000000
vn 1.000000 -0.000003 0.000000
vn 1.000000 -0.000003 0.000000
vn 1.000000 -0.000003 0.000000
vn 1.000000 -0.000003 0.000000
vn 0.222523 0.974927 0.000000
vn 0.222523 0.974927 0.000000
vn 0.222523 0.974927 0.000000
vn 0.222523 0.974927 0.000000
vn -0.623489 0.781832 0.000000
vn -0.623489 0.781832 0.000000
vn -0.623489 0.781832 0.000000
vn -0.623489 0.781832 0.000000
vn -1.000000 0.000000 0.000000
vn -1.000000 0.000000 0.000000
vn -1.000000 0.000000 0.000000
vn -1.000000 0.000000 0.000000
vn -0.623489 -0.781832 0.000000
vn -0.623489 -0.781832 0.000000
vn -0.623489 -0.781832 0.000000
vn -0.623489 -0.781832 0.000000
vn 0.222523 -0.974927 0.000000
vn 0.222523 -0.974927 0.000000
vn 0.222523 -0.974927 0.000000
vn 0.222523 -0.974927 0.000000
vn 0.900969 -0.433884 0.000000
vn 0.900969 -0.433884 0.000000
vn 0.900969 -0.433884 0.000000
vn 0.900969 -0.433884 0.000000
vn 0.900969 0.433884 0.000000
vn 0.900969 0.433884 0.000000
vn 0.900969 0.433884 0.000000
vn 0.900969 0.433884 0.000000
vn 0.000000 0.000000 1.000000
vn 0.000000 0.000000 1.000000
vn 0.000000 0.000000 1.000000
vn 0.000000 0.000000 1.000000
vn 0.000000 0.000000 1.000000
vn 0.000000 0.000000 1.000000
vn 0.000000 0.000000 1.000000
vn 0.385298 0.922792 0.000000
vn 0.385298 0.922792 0.000000
vn 0.385298 0.922792 0.000000
vn 0.385298 0.922792 0.000000
vn -0.481235 0.876592 0.000000
vn -0.481235 0.876592 0.000000
vn -0.481235 0.876592 0.000000
vn -0.481235 0.876592 0.000000
vn -0.985393 0.170298 0.000000
vn -0.985393 0.170298 0.000000
vn -0.985393 0.170298 0.000000
vn -0.985393 0.170298 0.000000
vn -0.747528 -0.664230 0.000000
vn -0.747528 -0.664230 0.000000
vn -0.747528 -0.664230 0.000000
vn -0.747528 -0.664230 0.000000
vn 0.053240 -0.998582 0.000000
vn 0.053240 -0.998582 0.000000
vn 0.053240 -0.998582 0.000000
vn 0.053240 -0.998582 0.000000
vn 0.813916 -0.580982 0.000000
vn 0.813916 -0.580982 0.000000
vn 0.813916 -0.580982 0.000000
vn 0.813916 -0.580982 0.000000
vn 0.961698 0.274110 0.000000
vn 0.961698 0.274110 0.000000
vn 0.961698 0.274110 0.000000
vn 0.961698 0.274110 0.000000
vn 0.000000 0.000000 1.000000
vn 0.000000 0.000000 1.000000
vn 0.000000 0.000000 1.000000
vn 0.000000 0.000000 1.000000
vn 0.000000 0.000000 1.000000
vn 0.000000 0.000000 1.000000
vn 0.000000 0.000000 1.000000
vn 0.222522 0.974928 0.000000
vn 0.222522 0.974928 0.000000
vn 0.222522 0.974928 0.000000
vn 0.222522 0.974928 0.000000
vn -0.623489 0.781832 0.000000
vn -0.623489 0.781832 0.000000
vn -0.623489 0.781832 0.000000
vn -0.623489 0.781832 0.000000
vn -1.000000 0.000000 0.000000
vn -1.000000 0.000000 0.000000
vn -1.000000 0.000000 0.000000
vn -1.000000 0.000000 0.000000
vn -0.623489 -0.781832 0.000000
vn -0.623489 -0.781832 0.000000
vn -0.623489 -0.781832 0.000000
vn -0.623489 -0.781832 0.000000
vn 0.222523 -0.974927 0.000000
vn 0.222523 -0.974927 0.000000
vn 0.222523 -0.974927 0.000000
vn 0.222523 -0.974927 0.000000
vn 0.900969 -0.433884 0.000000
vn 0.900969 -0.433884 0.000000
vn 0.900969 -0.433884 0.000000
vn 0.900969 -0.433884 0.000000
vn 0.900970 0.433881 0.000000
vn 0.900970 0.433881 0.000000
vn 0.900970 0.433881 0.000000
vn 0.900970 0.433881 0.000000
vn 0.000000 0.000000 1.000000
vn 0.000000 0.000000 1.000000
vn 0.000000 0.000000 1.000000
vn 0.000000 0.000000 1.000000
vn 0.000000 0.000000 1.000000
vn 0.000000 0.000000 1.000000
vn 0.000000 0.000000 1.000000
vn 0.222522 0.974928 0.000000
vn 0.222522 0.974928 0.000000
vn 0.222522 0.974928 0.000000
vn 0.222522 0.974928 0.000000
vn -0.623487 0.781833 0.000000
vn -0.623487 0.781833 0.000000
vn -0.623487 0.781833 0.000000
vn -0.623487 0.781833 0.000000
vn -1.000000 0.000000 0.000000
vn -1.000000 0.000000 0.000000
vn -1.000000 0.000000 0.000000
vn -1.000000 0.000000 0.000000
vn -0.623487 -0.781833 0.000000
vn -0.623487 -0.781833 0.000000
vn -0.623487 -0.781833 0.000000
vn -0.623487 -0.781833 0.000000
vn 0.222523 -0.974927 0.000000
vn 0.222523 -0.974927 0.000000
vn 0.222523 -0.974927 0.000000
vn 0.222523 -0.974927 0.000000
vn 0.900969 -0.433884 0.000000
vn 0.900969 -0.433884 0.000000
vn 0.900969 -0.433884 0.000000
vn 0.900969 -0.433884 0.000000
vn 0.900970 0.433881 0.000000
vn 0.900970 0.433881 0.000000
vn 0.900970 0.433881 0.000000
vn 0.900970 0.433881 0.000000
vn 0.000000 0.000000 1.000000
vn 0.000000 0.000000 1.000000
vn 0.000000 0.000000 1.000000
vn 0.000000 0.000000 1.000000
vn 0.000000 0.000000 1.000000
vn 0.000000 0.000000 1.000000
vn 0.000000 0.000000 1.000000
vn 1.000000 0.000000 0.000000
vn 1.000000 0.000000 0.000000
vn 1.000000 0.000000 0.000000
vn 1.000000 0.000000 0.000000
vn 0.000000 0.000000 1.000000
vn 0.000000 0.000000 1.000000
vn 0.000000 0.000000 1.000000
vn 0.000000 0.000000 1.000000
vn -1.000000 0.000000 -0.000002
vn -1.000000 0.000000 -0.000002
vn -1.000000 0.000000 -0.000002
vn -1.000000 0.000000 -0.000002
vn 0.000000 -1.000000 0.000000
vn 0.000000 -1.000000 0.000000
vn 0.000000 -1.000000 0.000000
vn 0.000000 -1.000000 0.000000
vn 0.000003 1.000000 0.000001
vn 0.000003 1.000000 0.000001
vn 0.000003 1.000000 0.000001
vn 0.000003 1.000000 0.000001
vn 0.385301 0.922791 0.000000
vn 0.385301 0.922791 0.000000
vn 0.385301 0.922791 0.000000
vn 0.385301 0.922791 0.000000
vn -0.481237 0.876591 0.000000
vn -0.481237 0.876591 0.000000
vn -0.481237 0.876591 0.000000
vn -0.481237 0.876591 0.000000
vn -0.985393 0.170298 0.000000
vn -0.985393 0.170298 0.000000
vn -0.985393 0.170298 0.000000
vn -0.985393 0.170298 0.000000
vn -0.747527 -0.664231 0.000000
vn -0.747527 -0.664231 0.000000
vn -0.747527 -0.664231 0.000000
vn -0.747527 -0.664231 0.000000
vn 0.053238 -0.998582 0.000000
vn 0.053238 -0.998582 0.000000
vn 0.053238 -0.998582 0.000000
vn 0.053238 -0.998582 0.000000
vn 0.813917 -0.580981 0.000000
vn 0.813917 -0.580981 0.000000
vn 0.813917 -0.580981 0.000000
vn 0.813917 -0.580981 0.000000
vn 0.961698 0.274110 0.000000
vn 0.961698 0.274110 0.000000
vn 0.961698 0.274110 0.000000
vn 0.961698 0.274110 0.000000
vn 0.000000 0.000000 1.000000
vn 0.000000 0.000000 1.000000
vn 0.000000 0.000000 1.000000
vn 0.000000 0.000000 1.000000
vn 0.000000 0.000000 1.000000
vn 0.000000 0.000000 1.000000
vn 0.000000 0.000000 1.000000
vn 0.385301 0.922791 0.000000
vn 0.385301 0.922791 0.000000
vn 0.385301 0.922791 0.000000
vn 0.385301 0.922791 0.000000
vn -0.481237 0.876591 0.000000
vn -0.481237 0.876591 0.000000
vn -0.481237 0.876591 0.000000
vn -0.481237 0.876591 0.000000
vn -0.985393 0.170298 0.000000
vn -0.985393 0.170298 0.000000
vn -0.985393 0.170298 0.000000
vn -0.985393 0.170298 0.000000
vn -0.747528 -0.664231 0.000000
vn -0.747528 -0.664231 0.000000
vn -0.747528 -0.664231 0.000000
vn -0.747528 -0.664231 0.000000
vn 0.053238 -0.998582 0.000000
vn 0.053238 -0.998582 0.000000
vn 0.053238 -0.998582 0.000000
vn 0.053238 -0.998582 0.000000
vn 0.813917 -0.580981 0.000000
vn 0.813917 -0.580981 0.000000
vn 0.813917 -0.580981 0.000000
vn 0.813917 -0.580981 0.000000
vn 0.961698 0.274110 0.000000
vn 0.961698 0.274110 0.000000
vn 0.961698 0.274110 0.000000
vn 0.961698 0.274110 0.000000
vn 0.000000 0.000000 1.000000
vn 0.000000 0.000000 1.000000
vn 0.000000 0.000000 1.000000
vn 0.000000 0.000000 1.000000
vn 0.000000 0.000000 1.000000
vn 0.000000 0.000000 1.000000
vn 0.000000 0.000000 1.000000
s off
g signal_light:polySurface13polySurface22
usemtl initialShadingGroup
f 1/1/1 2/2/2 8/3/3 7/4/4
f 2/2/5 3/5/6 9/6/7 8/3/8
f 3/5/9 4/7/10 10/8/11 9/6/12
f 4/7/13 5/9/14 11/10/15 10/8/16
f 5/9/17 6/11/18 12/12/19 11/10/20
f 6/11/21 1/13/22 7/14/23 12/12/24
f 7/15/25 8/16/26 27/17/27 28/18/28
f 8/16/29 9/19/30 26/20/31 27/17/32
f 9/19/33 10/21/34 25/22/35 26/20/36
f 10/21/37 11/23/38 30/24/39 25/22/40
f 11/23/41 12/25/42 29/26/43 30/24/44
f 12/25/45 7/27/46 28/28/47 29/26/48
f 15/29/49 20/30/50 19/31/51 16/32/52
f 14/33/53 21/34/54 20/30/55 15/29/56
f 13/35/57 22/36/58 21/34/59 14/33/60
f 18/37/61 23/38/62 22/39/63 13/40/64
f 17/41/65 24/42/66 23/38/67 18/37/68
f 16/32/69 19/31/70 24/42/71 17/41/72
f 26/20/73 25/22/74 19/31/75 20/30/76
f 27/17/77 26/20/78 20/30/79 21/34/80
f 28/18/81 27/17/82 21/34/83 22/36/84
f 29/26/85 28/28/86 22/39/87 23/38/88
f 30/24/89 29/26/90 23/38/91 24/42/92
f 25/22/93 30/24/94 24/42/95 19/31/96
f 32/43/97 31/44/98 37/45/99 38/46/100
f 33/47/101 32/43/102 38/46/103 35/48/104
f 34/49/105 33/47/106 35/48/107 36/50/108
f 34/51/109 31/44/110 32/43/111 33/52/112
f 35/48/113 38/46/114 37/53/115 36/50/116
f 39/54/117 40/55/118 47/56/119 46/57/120
f 40/55/121 41/58/122 48/59/123 47/56/124
f 41/58/125 42/60/126 49/61/127 48/59/128
f 42/60/129 43/62/130 50/63/131 49/61/132
f 43/62/133 44/64/134 51/65/135 50/63/136
f 44/64/137 45/66/138 52/67/139 51/65/140
f 45/66/141 39/68/142 46/69/143 52/67/144
f 52/70/145 46/71/146 47/72/147 48/73/148 49/74/149 50/75/150 51/76/151
f 53/77/152 54/78/153 61/79/154 60/80/155
f 54/78/156 55/81/157 62/82/158 61/79/159
f 55/81/160 56/83/161 63/84/162 62/82/163
f 56/83/164 57/85/165 64/86/166 63/84/167
f 57/85/168 58/87/169 65/88/170 64/86/171
f 58/87/172 59/89/173 66/90/174 65/88/175
f 59/89/176 53/91/177 60/92/178 66/90/179
f 66/93/180 60/94/181 61/95/182 62/96/183 63/97/184 64/98/185 65/99/186
f 67/100/187 68/101/188 75/102/189 74/103/190
f 68/101/191 69/104/192 76/105/193 75/102/194
f 69/104/195 70/106/196 77/107/197 76/105/198
f 70/106/199 71/108/200 78/109/201 77/107/202
f 71/108/203 72/110/204 79/111/205 78/109/206
f 72/110/207 73/112/208 80/113/209 79/111/210
f 73/112/211 67/114/212 74/115/213 80/113/214
f 80/116/215 74/117/216 75/118/217 76/119/218 77/120/219 78/121/220 79/122/221
f 81/123/222 82/124/223 89/125/224 88/126/225
f 82/124/226 83/127/227 90/128/228 89/125/229
f 83/127/230 84/129/231 91/130/232 90/128/233
f 84/129/234 85/131/235 92/132/236 91/130/237
f 85/131/238 86/133/239 93/134/240 92/132/241
f 86/133/242 87/135/243 94/136/244 93/134/245
f 87/135/246 81/137/247 88/138/248 94/136/249
f 94/139/250 88/140/251 89/141/252 90/142/253 91/143/254 92/144/255 93/145/256
f 96/146/257 95/147/258 101/148/259 102/149/260
f 97/150/261 96/146/262 102/149/263 99/151/264
f 98/152/265 97/150/266 99/151/267 100/153/268
f 98/154/269 95/147/270 96/146/271 97/155/272
f 99/151/273 102/149/274 101/156/275 100/153/276
f 103/157/277 104/158/278 111/159/279 110/160/280
f 104/158/281 105/161/282 112/162/283 111/159/284
f 105/161/285 106/163/286 113/164/287 112/162/288
f 106/163/289 107/165/290 114/166/291 113/164/292
f 107/165/293 108/167/294 115/168/295 114/166/296
f 108/167/297 109/169/298 116/170/299 115/168/300
f 109/169/301 103/171/302 110/172/303 116/170/304
f 116/173/305 110/174/306 111/175/307 112/176/308 113/177/309 114/178/310 115/179/311
f 117/180/312 118/181/313 125/182/314 124/183/315
f 118/181/316 119/184/317 126/185/318 125/182/319
f 119/184/320 120/186/321 127/187/322 126/185/323
f 120/186/324 121/188/325 128/189/326 127/187/327
f 121/188/328 122/190/329 129/191/330 128/189/331
f 122/190/332 123/192/333 130/193/334 129/191/335
f 123/192/336 117/194/337 124/195/338 130/193/339
f 130/196/340 124/197/341 125/198/342 126/199/343 127/200/344 128/201/345 129/202/346
