# This file uses centimeters as units for non-parametric coordinates.

mtllib barrier 2.mtl
g default
v 1.116082 0.175485 0.145224
v 1.616562 0.175485 0.145224
v 1.116082 5.112966 0.145224
v 1.616562 5.112966 0.145224
v 1.116082 5.112966 -0.201263
v 1.616562 5.112966 -0.201263
v 1.116082 0.175485 -0.201263
v 1.616562 0.175485 -0.201263
v 1.748601 0.001453 0.691301
v 1.748601 0.001453 -0.691301
v 1.748601 0.192868 0.691301
v 1.748601 0.192868 -0.691301
v -1.876846 0.192868 0.691301
v -1.876846 0.192868 -0.691301
v -1.876846 0.001453 0.691301
v -1.876846 0.001453 -0.691301
v -1.773728 0.175485 0.145224
v -1.273248 0.175485 0.145224
v -1.773728 5.112966 0.145224
v -1.273248 5.112966 0.145224
v -1.773728 5.112966 -0.201263
v -1.273248 5.112966 -0.201263
v -1.773728 0.175485 -0.201263
v -1.273248 0.175485 -0.201263
vt 0.021200 0.408345
vt 0.021104 0.365857
vt 0.440274 0.364908
vt 0.440370 0.407397
vt 0.440111 0.293005
vt 0.440207 0.335493
vt 0.021038 0.336442
vt 0.020942 0.293953
vt 0.020875 0.264538
vt 0.440044 0.263590
vt 0.378566 0.456760
vt 0.378544 0.598821
vt 0.368153 0.586957
vt 0.369251 0.469555
vt 0.064861 0.585993
vt 0.065957 0.468580
vt 0.055582 0.598809
vt 0.055559 0.456723
vt 0.021200 0.408345
vt 0.021104 0.365857
vt 0.440274 0.364908
vt 0.440370 0.407397
vt 0.440111 0.293005
vt 0.440207 0.335493
vt 0.021038 0.336442
vt 0.020942 0.293953
vt 0.020875 0.264538
vt 0.440044 0.263589
vn 0.000000 0.000000 1.000000
vn 0.000000 0.000000 1.000000
vn 0.000000 0.000000 1.000000
vn 0.000000 0.000000 1.000000
vn 0.000000 0.000000 -1.000000
vn 0.000000 0.000000 -1.000000
vn 0.000000 0.000000 -1.000000
vn 0.000000 0.000000 -1.000000
vn 1.000000 0.000000 0.000000
vn 1.000000 0.000000 0.000000
vn 1.000000 0.000000 0.000000
vn 1.000000 0.000000 0.000000
vn -1.000000 0.000000 0.000000
vn -1.000000 0.000000 0.000000
vn -1.000000 0.000000 0.000000
vn -1.000000 0.000000 0.000000
vn 1.000000 0.000000 0.000000
vn 1.000000 0.000000 0.000000
vn 1.000000 0.000000 0.000000
vn 1.000000 0.000000 0.000000
vn 0.000000 1.000000 0.000000
vn 0.000000 1.000000 0.000000
vn 0.000000 1.000000 0.000000
vn 0.000000 1.000000 0.000000
vn -1.000000 0.000000 0.000000
vn -1.000000 0.000000 0.000000
vn -1.000000 0.000000 0.000000
vn -1.000000 0.000000 0.000000
vn 0.000000 0.000000 -1.000000
vn 0.000000 0.000000 -1.000000
vn 0.000000 0.000000 -1.000000
vn 0.000000 0.000000 -1.000000
vn 0.000000 0.000000 1.000000
vn 0.000000 0.000000 1.000000
vn 0.000000 0.000000 1.000000
vn 0.000000 0.000000 1.000000
vn 0.000000 0.000000 1.000000
vn 0.000000 0.000000 1.000000
vn 0.000000 0.000000 1.000000
vn 0.000000 0.000000 1.000000
vn 0.000000 0.000000 -1.000000
vn 0.000000 0.000000 -1.000000
vn 0.000000 0.000000 -1.000000
vn 0.000000 0.000000 -1.000000
vn 1.000000 0.000000 0.000000
vn 1.000000 0.000000 0.000000
vn 1.000000 0.000000 0.000000
vn 1.000000 0.000000 0.000000
vn -1.000000 0.000000 0.000000
vn -1.000000 0.000000 0.000000
vn -1.000000 0.000000 0.000000
vn -1.000000 0.000000 0.000000
s off
g polySurface8 group1
usemtl initialShadingGroup
f 1/1/1 2/2/2 4/3/3 3/4/4
f 5/5/5 6/6/6 8/7/7 7/8/8
f 2/2/9 8/7/10 6/6/11 4/3/12
f 7/8/13 1/9/14 3/10/15 5/5/16
f 9/11/17 10/12/18 12/13/19 11/14/20
f 11/14/21 12/13/22 14/15/23 13/16/24
f 13/16/25 14/15/26 16/17/27 15/18/28
f 10/12/29 16/17/30 14/15/31 12/13/32
f 15/18/33 9/11/34 11/14/35 13/16/36
f 17/19/37 18/20/38 20/21/39 19/22/40
f 21/23/41 22/24/42 24/25/43 23/26/44
f 18/20/45 24/25/46 22/24/47 20/21/48
f 23/26/49 17/27/50 19/28/51 21/23/52
g default
v -1.915577 3.956777 -0.231628
v -1.915577 5.670109 -0.231628
v -1.915577 3.956777 -0.423043
v -1.915577 5.670109 -0.423043
v 1.798683 3.956777 -0.423043
v 1.798683 5.670109 -0.423043
v 1.798683 3.956777 -0.231628
v 1.798683 5.670109 -0.231628
v 1.322082 6.431137 -0.231628
v -1.438976 6.431137 -0.231628
v 1.322082 6.431137 -0.423043
v -1.438976 6.431137 -0.423043
v -1.915578 2.084579 0.343191
v -1.915578 3.797910 0.343191
v -1.915578 2.084579 0.151776
v -1.915578 3.797910 0.151776
v 1.798683 2.084579 0.151776
v 1.798683 3.797910 0.151776
v 1.798683 2.084579 0.343191
v 1.798683 3.797910 0.343191
v -1.915578 2.084579 -0.171657
v -1.915578 3.797910 -0.171657
v -1.915578 2.084579 -0.363072
v -1.915578 3.797910 -0.363072
v 1.798683 2.084579 -0.363072
v 1.798683 3.797910 -0.363072
v 1.798683 2.084579 -0.171657
v 1.798683 3.797910 -0.171657
v -1.915577 3.956777 0.343191
v -1.915577 5.670109 0.343191
v -1.915577 3.956777 0.151776
v -1.915577 5.670109 0.151776
v 1.798683 3.956777 0.151776
v 1.798683 5.670109 0.151776
v 1.798683 3.956777 0.343191
v 1.798683 5.670109 0.343191
v 1.322082 6.431137 0.343191
v -1.438976 6.431137 0.343191
v 1.322082 6.431137 0.151776
v -1.438976 6.431137 0.151776
vt 0.523138 0.624095
vt 0.483529 0.388265
vt 0.506880 0.391749
vt 0.534436 0.604943
vt 0.013319 0.897105
vt 0.013319 0.747420
vt 0.337812 0.747420
vt 0.337812 0.897105
vt 0.950493 0.590811
vt 0.965473 0.398706
vt 0.987616 0.396099
vt 0.964060 0.608291
vt 0.675343 0.889190
vt 0.674682 0.743850
vt 0.989760 0.742417
vt 0.990421 0.887758
vt 0.564523 0.279669
vt 0.923248 0.284924
vt 0.912942 0.305577
vt 0.571938 0.300383
vt 0.714818 0.679108
vt 0.949037 0.678043
vt 0.054957 0.680934
vt 0.296174 0.680934
vt 0.029521 0.623434
vt 0.028835 0.430418
vt 0.040865 0.443659
vt 0.040280 0.609103
vt 0.523635 0.236948
vt 0.523635 0.021304
vt 0.991121 0.021304
vt 0.991121 0.236948
vt 0.395063 0.608769
vt 0.395649 0.443312
vt 0.406378 0.428964
vt 0.407099 0.622004
vt 0.513588 0.018378
vt 0.513588 0.247779
vt 0.016277 0.247779
vt 0.016277 0.018378
vt 0.029521 0.623434
vt 0.028835 0.430418
vt 0.040865 0.443659
vt 0.040280 0.609103
vt 0.523635 0.236948
vt 0.523635 0.021304
vt 0.991121 0.021304
vt 0.991121 0.236948
vt 0.395063 0.608769
vt 0.395649 0.443312
vt 0.406378 0.428964
vt 0.407099 0.622004
vt 0.513588 0.018378
vt 0.513588 0.247779
vt 0.016277 0.247779
vt 0.016277 0.018378
vt 0.523138 0.624095
vt 0.483529 0.388265
vt 0.506880 0.391749
vt 0.534436 0.604943
vt 0.553891 0.557239
vt 0.553891 0.395155
vt 0.905265 0.395155
vt 0.905265 0.557239
vt 0.950493 0.590811
vt 0.965473 0.398706
vt 0.987616 0.396099
vt 0.964060 0.608291
vt 0.349184 0.886014
vt 0.348523 0.740674
vt 0.663601 0.739241
vt 0.664261 0.884582
vt 0.564523 0.279669
vt 0.923248 0.284924
vt 0.912942 0.305577
vt 0.571938 0.300383
vt 0.388659 0.675933
vt 0.622878 0.674868
vt 0.598978 0.323161
vt 0.860178 0.323161
vn -1.000000 0.000000 0.000000
vn -1.000000 0.000000 0.000000
vn -1.000000 0.000000 0.000000
vn -1.000000 0.000000 0.000000
vn 0.000000 0.000000 -1.000000
vn 0.000000 0.000000 -1.000000
vn 0.000000 0.000000 -1.000000
vn 0.000000 0.000000 -1.000000
vn 1.000000 0.000000 0.000000
vn 1.000000 0.000000 0.000000
vn 1.000000 0.000000 0.000000
vn 1.000000 0.000000 0.000000
vn 0.000000 0.000000 1.000000
vn 0.000000 0.000000 1.000000
vn 0.000000 0.000000 1.000000
vn 0.000000 0.000000 1.000000
vn 0.000000 1.000000 0.000000
vn 0.000000 1.000000 0.000000
vn 0.000000 1.000000 0.000000
vn 0.000000 1.000000 0.000000
vn 0.000000 -1.000000 0.000000
vn 0.000000 -1.000000 0.000000
vn 0.000000 -1.000000 0.000000
vn 0.000000 -1.000000 0.000000
vn 0.000000 0.000000 1.000000
vn 0.000000 0.000000 1.000000
vn 0.000000 0.000000 1.000000
vn 0.000000 0.000000 1.000000
vn 0.847518 0.530767 0.000000
vn 0.847518 0.530767 0.000000
vn 0.847518 0.530767 0.000000
vn 0.847518 0.530767 0.000000
vn 0.000000 0.000000 -1.000000
vn 0.000000 0.000000 -1.000000
vn 0.000000 0.000000 -1.000000
vn 0.000000 0.000000 -1.000000
vn -0.847518 0.530767 0.000000
vn -0.847518 0.530767 0.000000
vn -0.847518 0.530767 0.000000
vn -0.847518 0.530767 0.000000
vn -1.000000 0.000000 0.000000
vn -1.000000 0.000000 0.000000
vn -1.000000 0.000000 0.000000
vn -1.000000 0.000000 0.000000
vn 0.000000 0.000000 -1.000000
vn 0.000000 0.000000 -1.000000
vn 0.000000 0.000000 -1.000000
vn 0.000000 0.000000 -1.000000
vn 1.000000 0.000000 0.000000
vn 1.000000 0.000000 0.000000
vn 1.000000 0.000000 0.000000
vn 1.000000 0.000000 0.000000
vn 0.000000 0.000000 1.000000
vn 0.000000 0.000000 1.000000
vn 0.000000 0.000000 1.000000
vn 0.000000 0.000000 1.000000
vn 0.000000 1.000000 0.000000
vn 0.000000 1.000000 0.000000
vn 0.000000 1.000000 0.000000
vn 0.000000 1.000000 0.000000
vn 0.000000 -1.000000 0.000000
vn 0.000000 -1.000000 0.000000
vn 0.000000 -1.000000 0.000000
vn 0.000000 -1.000000 0.000000
vn -1.000000 0.000000 0.000000
vn -1.000000 0.000000 0.000000
vn -1.000000 0.000000 0.000000
vn -1.000000 0.000000 0.000000
vn 0.000000 0.000000 -1.000000
vn 0.000000 0.000000 -1.000000
vn 0.000000 0.000000 -1.000000
vn 0.000000 0.000000 -1.000000
vn 1.000000 0.000000 0.000000
vn 1.000000 0.000000 0.000000
vn 1.000000 0.000000 0.000000
vn 1.000000 0.000000 0.000000
vn 0.000000 0.000000 1.000000
vn 0.000000 0.000000 1.000000
vn 0.000000 0.000000 1.000000
vn 0.000000 0.000000 1.000000
vn 0.000000 1.000000 0.000000
vn 0.000000 1.000000 0.000000
vn 0.000000 1.000000 0.000000
vn 0.000000 1.000000 0.000000
vn 0.000000 -1.000000 0.000000
vn 0.000000 -1.000000 0.000000
vn 0.000000 -1.000000 0.000000
vn 0.000000 -1.000000 0.000000
vn -1.000000 0.000000 0.000000
vn -1.000000 0.000000 0.000000
vn -1.000000 0.000000 0.000000
vn -1.000000 0.000000 0.000000
vn 0.000000 0.000000 -1.000000
vn 0.000000 0.000000 -1.000000
vn 0.000000 0.000000 -1.000000
vn 0.000000 0.000000 -1.000000
vn 1.000000 0.000000 0.000000
vn 1.000000 0.000000 0.000000
vn 1.000000 0.000000 0.000000
vn 1.000000 0.000000 0.000000
vn 0.000000 0.000000 1.000000
vn 0.000000 0.000000 1.000000
vn 0.000000 0.000000 1.000000
vn 0.000000 0.000000 1.000000
vn 0.000000 1.000000 0.000000
vn 0.000000 1.000000 0.000000
vn 0.000000 1.000000 0.000000
vn 0.000000 1.000000 0.000000
vn 0.000000 -1.000000 0.000000
vn 0.000000 -1.000000 0.000000
vn 0.000000 -1.000000 0.000000
vn 0.000000 -1.000000 0.000000
vn 0.000000 0.000000 1.000000
vn 0.000000 0.000000 1.000000
vn 0.000000 0.000000 1.000000
vn 0.000000 0.000000 1.000000
vn 0.847518 0.530767 0.000000
vn 0.847518 0.530767 0.000000
vn 0.847518 0.530767 0.000000
vn 0.847518 0.530767 0.000000
vn 0.000000 0.000000 -1.000000
vn 0.000000 0.000000 -1.000000
vn 0.000000 0.000000 -1.000000
vn 0.000000 0.000000 -1.000000
vn -0.847518 0.530767 0.000000
vn -0.847518 0.530767 0.000000
vn -0.847518 0.530767 0.000000
vn -0.847518 0.530767 0.000000
s off
g group1 polySurface10
usemtl initialShadingGroup
f 25/29/53 26/30/54 28/31/55 27/32/56
f 27/33/57 28/34/58 30/35/59 29/36/60
f 29/37/61 30/38/62 32/39/63 31/40/64
f 31/41/65 32/42/66 26/43/67 25/44/68
f 34/45/69 33/46/70 35/47/71 36/48/72
f 31/40/73 25/29/74 27/32/75 29/37/76
f 26/43/77 32/42/78 33/49/79 34/50/80
f 32/39/81 30/38/82 35/47/83 33/46/84
f 30/35/85 28/34/86 36/51/87 35/52/88
f 28/31/89 26/30/90 34/45/91 36/48/92
f 37/53/93 38/54/94 40/55/95 39/56/96
f 39/57/97 40/58/98 42/59/99 41/60/100
f 41/61/101 42/62/102 44/63/103 43/64/104
f 43/65/105 44/66/106 38/67/107 37/68/108
f 38/54/109 44/63/110 42/62/111 40/55/112
f 43/64/113 37/53/114 39/56/115 41/61/116
f 45/69/117 46/70/118 48/71/119 47/72/120
f 47/73/121 48/74/122 50/75/123 49/76/124
f 49/77/125 50/78/126 52/79/127 51/80/128
f 51/81/129 52/82/130 46/83/131 45/84/132
f 46/70/133 52/79/134 50/78/135 48/71/136
f 51/80/137 45/69/138 47/72/139 49/77/140
f 53/85/141 54/86/142 56/87/143 55/88/144
f 55/89/145 56/90/146 58/91/147 57/92/148
f 57/93/149 58/94/150 60/95/151 59/96/152
f 59/97/153 60/98/154 54/99/155 53/100/156
f 62/101/157 61/102/158 63/103/159 64/104/160
f 59/96/161 53/85/162 55/88/163 57/93/164
f 54/99/165 60/98/166 61/105/167 62/106/168
f 60/95/169 58/94/170 63/103/171 61/102/172
f 58/91/173 56/90/174 64/107/175 63/108/176
f 56/87/177 54/86/178 62/101/179 64/104/180
