# This file uses centimeters as units for non-parametric coordinates.

mtllib coin.mtl
g default
v 0.432473 2.005017 1.715252
v -0.032389 2.469880 1.715252
v -0.667403 2.640031 1.715252
v -1.302416 2.469880 1.715252
v -1.767278 2.005017 1.715252
v -1.937430 1.370004 1.715252
v -1.767278 0.734990 1.715252
v -1.302416 0.270128 1.715252
v -0.667403 0.099976 1.715252
v -0.032389 0.270128 1.715252
v 0.432473 0.734990 1.715252
v 0.602625 1.370004 1.715252
v 0.432473 2.005017 2.105042
v -0.032389 2.469880 2.105042
v -0.667403 2.640031 2.105042
v -1.302416 2.469880 2.105042
v -1.767278 2.005017 2.105042
v -1.937430 1.370004 2.105042
v -1.767278 0.734990 2.105042
v -1.302416 0.270128 2.105042
v -0.667403 0.099976 2.105042
v -0.032389 0.270128 2.105042
v 0.432473 0.734990 2.105042
v 0.602625 1.370004 2.105042
v -0.138224 0.453440 1.715252
v 0.249161 0.840826 1.715252
v -0.667403 0.311648 1.715252
v -1.196581 0.453440 1.715252
v -1.583966 0.840826 1.715252
v -1.725759 1.370004 1.715252
v -1.583966 1.899182 1.715252
v -1.196581 2.286567 1.715252
v -0.667403 2.428360 1.715252
v -0.138224 2.286567 1.715252
v 0.249161 1.899182 1.715252
v 0.390954 1.370004 1.715252
v 0.390954 1.370004 2.105042
v 0.249161 1.899182 2.105042
v -0.138224 2.286567 2.105042
v -0.667403 2.428360 2.105042
v -1.196581 2.286567 2.105042
v -1.583966 1.899182 2.105042
v -1.725759 1.370004 2.105042
v -1.583966 0.840826 2.105042
v -1.196581 0.453441 2.105042
v -0.667403 0.311648 2.105042
v -0.138224 0.453441 2.105042
v 0.249161 0.840826 2.105042
v -0.138224 0.453440 1.815463
v 0.249161 0.840826 1.815463
v -0.667403 0.311648 1.815463
v -1.196581 0.453440 1.815463
v -1.583966 0.840826 1.815463
v -1.725759 1.370004 1.815463
v -1.583966 1.899182 1.815463
v -1.196581 2.286567 1.815463
v -0.667403 2.428360 1.815463
v -0.138224 2.286567 1.815463
v 0.249161 1.899182 1.815463
v 0.390954 1.370004 1.815463
v 0.390954 1.370004 2.004832
v 0.249161 1.899182 2.004832
v -0.138224 2.286567 2.004832
v -0.667403 2.428360 2.004832
v -1.196581 2.286567 2.004832
v -1.583966 1.899182 2.004832
v -1.725759 1.370004 2.004832
v -1.583966 0.840826 2.004832
v -1.196581 0.453441 2.004832
v -0.667403 0.311648 2.004832
v -0.138224 0.453441 2.004832
v 0.249161 0.840826 2.004832
vt 0.375000 0.312500
vt 0.395833 0.312500
vt 0.395833 0.688440
vt 0.375000 0.688440
vt 0.416667 0.312500
vt 0.416667 0.688440
vt 0.437500 0.312500
vt 0.437500 0.688440
vt 0.458333 0.312500
vt 0.458333 0.688440
vt 0.479167 0.312500
vt 0.479167 0.688440
vt 0.500000 0.312500
vt 0.500000 0.688440
vt 0.520833 0.312500
vt 0.520833 0.688440
vt 0.541667 0.312500
vt 0.541667 0.688440
vt 0.562500 0.312500
vt 0.562500 0.688440
vt 0.583333 0.312500
vt 0.583333 0.688440
vt 0.604167 0.312500
vt 0.604167 0.688440
vt 0.625000 0.312500
vt 0.625000 0.688440
vt 0.635316 0.234375
vt 0.578125 0.291566
vt 0.500000 0.312500
vt 0.421875 0.291566
vt 0.364684 0.234375
vt 0.343750 0.156250
vt 0.364684 0.078125
vt 0.421875 0.020934
vt 0.500000 0.000000
vt 0.578125 0.020934
vt 0.635316 0.078125
vt 0.656250 0.156250
vt 0.656250 0.843750
vt 0.635316 0.921875
vt 0.578125 0.979066
vt 0.500000 1.000000
vt 0.421875 0.979066
vt 0.364684 0.921875
vt 0.343750 0.843750
vt 0.364684 0.765625
vt 0.421875 0.708434
vt 0.500000 0.687500
vt 0.578125 0.708434
vt 0.635316 0.765625
vt 0.635316 0.234375
vt 0.578125 0.291566
vt 0.578125 0.291566
vt 0.635316 0.234375
vt 0.500000 0.312500
vt 0.500000 0.312500
vt 0.421875 0.291566
vt 0.421875 0.291566
vt 0.364684 0.234375
vt 0.364684 0.234375
vt 0.343750 0.156250
vt 0.343750 0.156250
vt 0.364684 0.078125
vt 0.364684 0.078125
vt 0.421875 0.020934
vt 0.421875 0.020934
vt 0.500000 0.000000
vt 0.500000 0.000000
vt 0.578125 0.020934
vt 0.578125 0.020934
vt 0.635316 0.078125
vt 0.635316 0.078125
vt 0.656250 0.156250
vt 0.656250 0.156250
vt 0.656250 0.843750
vt 0.635316 0.921875
vt 0.635316 0.921875
vt 0.656250 0.843750
vt 0.578125 0.979066
vt 0.578125 0.979066
vt 0.500000 1.000000
vt 0.500000 1.000000
vt 0.421875 0.979066
vt 0.421875 0.979066
vt 0.364684 0.921875
vt 0.364684 0.921875
vt 0.343750 0.843750
vt 0.343750 0.843750
vt 0.364684 0.765625
vt 0.364684 0.765625
vt 0.421875 0.708434
vt 0.421875 0.708434
vt 0.500000 0.687500
vt 0.500000 0.687500
vt 0.578125 0.708434
vt 0.578125 0.708434
vt 0.635316 0.765625
vt 0.635316 0.765625
vn 0.707107 0.707107 0.000000
vn 0.707107 0.707107 0.000000
vn 0.707107 0.707107 0.000000
vn 0.707107 0.707107 0.000000
vn 0.258819 0.965926 0.000000
vn 0.258819 0.965926 0.000000
vn 0.258819 0.965926 0.000000
vn 0.258819 0.965926 0.000000
vn -0.258819 0.965926 0.000000
vn -0.258819 0.965926 0.000000
vn -0.258819 0.965926 0.000000
vn -0.258819 0.965926 0.000000
vn -0.707107 0.707107 0.000000
vn -0.707107 0.707107 0.000000
vn -0.707107 0.707107 0.000000
vn -0.707107 0.707107 0.000000
vn -0.965926 0.258819 0.000000
vn -0.965926 0.258819 0.000000
vn -0.965926 0.258819 0.000000
vn -0.965926 0.258819 0.000000
vn -0.965926 -0.258819 0.000000
vn -0.965926 -0.258819 0.000000
vn -0.965926 -0.258819 0.000000
vn -0.965926 -0.258819 0.000000
vn -0.707107 -0.707107 0.000000
vn -0.707107 -0.707107 0.000000
vn -0.707107 -0.707107 0.000000
vn -0.707107 -0.707107 0.000000
vn -0.258819 -0.965926 0.000000
vn -0.258819 -0.965926 0.000000
vn -0.258819 -0.965926 0.000000
vn -0.258819 -0.965926 0.000000
vn 0.258819 -0.965926 0.000000
vn 0.258819 -0.965926 0.000000
vn 0.258819 -0.965926 0.000000
vn 0.258819 -0.965926 0.000000
vn 0.707107 -0.707107 0.000000
vn 0.707107 -0.707107 0.000000
vn 0.707107 -0.707107 0.000000
vn 0.707107 -0.707107 0.000000
vn 0.965926 -0.258819 0.000000
vn 0.965926 -0.258819 0.000000
vn 0.965926 -0.258819 0.000000
vn 0.965926 -0.258819 0.000000
vn 0.965926 0.258819 0.000000
vn 0.965926 0.258819 0.000000
vn 0.965926 0.258819 0.000000
vn 0.965926 0.258819 0.000000
vn 0.000000 0.000000 -1.000000
vn 0.000000 0.000000 -1.000000
vn 0.000000 0.000000 -1.000000
vn 0.000000 0.000000 -1.000000
vn 0.000000 0.000000 -1.000000
vn 0.000000 0.000000 -1.000000
vn 0.000000 0.000000 -1.000000
vn 0.000000 0.000000 -1.000000
vn 0.000000 0.000000 -1.000000
vn 0.000000 0.000000 -1.000000
vn 0.000000 0.000000 -1.000000
vn 0.000000 0.000000 -1.000000
vn 0.000000 0.000000 1.000000
vn 0.000000 0.000000 1.000000
vn 0.000000 0.000000 1.000000
vn 0.000000 0.000000 1.000000
vn 0.000000 0.000000 1.000000
vn 0.000000 0.000000 1.000000
vn 0.000000 0.000000 1.000000
vn 0.000000 0.000000 1.000000
vn 0.000000 0.000000 1.000000
vn 0.000000 0.000000 1.000000
vn 0.000000 0.000000 1.000000
vn 0.000000 0.000000 1.000000
vn 0.000000 0.000000 -1.000000
vn 0.000000 0.000000 -1.000000
vn 0.000000 0.000000 -1.000000
vn 0.000000 0.000000 -1.000000
vn 0.000000 0.000000 -1.000000
vn 0.000000 0.000000 -1.000000
vn 0.000000 0.000000 -1.000000
vn 0.000000 0.000000 -1.000000
vn 0.000000 0.000000 -1.000000
vn 0.000000 0.000000 -1.000000
vn 0.000000 0.000000 -1.000000
vn 0.000000 0.000000 -1.000000
vn 0.000000 0.000000 -1.000000
vn 0.000000 0.000000 -1.000000
vn 0.000000 0.000000 -1.000000
vn 0.000000 0.000000 -1.000000
vn 0.000000 0.000000 -1.000000
vn 0.000000 0.000000 -1.000000
vn 0.000000 0.000000 -1.000000
vn 0.000000 0.000000 -1.000000
vn 0.000000 0.000000 -1.000000
vn 0.000000 0.000000 -1.000000
vn 0.000000 0.000000 -1.000000
vn 0.000000 0.000000 -1.000000
vn 0.000000 0.000000 -1.000000
vn 0.000000 0.000000 -1.000000
vn 0.000000 0.000000 -1.000000
vn 0.000000 0.000000 -1.000000
vn 0.000000 0.000000 -1.000000
vn 0.000000 0.000000 -1.000000
vn 0.000000 0.000000 -1.000000
vn 0.000000 0.000000 -1.000000
vn 0.000000 0.000000 -1.000000
vn 0.000000 0.000000 -1.000000
vn 0.000000 0.000000 -1.000000
vn 0.000000 0.000000 -1.000000
vn 0.000000 0.000000 -1.000000
vn 0.000000 0.000000 -1.000000
vn 0.000000 0.000000 -1.000000
vn 0.000000 0.000000 -1.000000
vn 0.000000 0.000000 -1.000000
vn 0.000000 0.000000 -1.000000
vn 0.000000 0.000000 -1.000000
vn 0.000000 0.000000 -1.000000
vn 0.000000 0.000000 -1.000000
vn 0.000000 0.000000 -1.000000
vn 0.000000 0.000000 -1.000000
vn 0.000000 0.000000 -1.000000
vn 0.000000 0.000000 1.000000
vn 0.000000 0.000000 1.000000
vn 0.000000 0.000000 1.000000
vn 0.000000 0.000000 1.000000
vn 0.000000 0.000000 1.000000
vn 0.000000 0.000000 1.000000
vn 0.000000 0.000000 1.000000
vn 0.000000 0.000000 1.000000
vn 0.000000 0.000000 1.000000
vn 0.000000 0.000000 1.000000
vn 0.000000 0.000000 1.000000
vn 0.000000 0.000000 1.000000
vn 0.000000 0.000000 1.000000
vn 0.000000 0.000000 1.000000
vn 0.000000 0.000000 1.000000
vn 0.000000 0.000000 1.000000
vn 0.000000 0.000000 1.000000
vn 0.000000 0.000000 1.000000
vn 0.000000 0.000000 1.000000
vn 0.000000 0.000000 1.000000
vn 0.000000 0.000000 1.000000
vn 0.000000 0.000000 1.000000
vn 0.000000 0.000000 1.000000
vn 0.000000 0.000000 1.000000
vn 0.000000 0.000000 1.000000
vn 0.000000 0.000000 1.000000
vn 0.000000 0.000000 1.000000
vn 0.000000 0.000000 1.000000
vn 0.000000 0.000000 1.000000
vn 0.000000 0.000000 1.000000
vn 0.000000 0.000000 1.000000
vn 0.000000 0.000000 1.000000
vn 0.000000 0.000000 1.000000
vn 0.000000 0.000000 1.000000
vn 0.000000 0.000000 1.000000
vn 0.000000 0.000000 1.000000
vn 0.000000 0.000000 1.000000
vn 0.000000 0.000000 1.000000
vn 0.000000 0.000000 1.000000
vn 0.000000 0.000000 1.000000
vn 0.000000 0.000000 1.000000
vn 0.000000 0.000000 1.000000
vn 0.000000 0.000000 1.000000
vn 0.000000 0.000000 1.000000
vn 0.000000 0.000000 1.000000
vn 0.000000 0.000000 1.000000
vn 0.000000 0.000000 1.000000
vn 0.000000 0.000000 1.000000
vn -0.707107 0.707107 0.000000
vn -0.707107 0.707107 0.000000
vn -0.707107 0.707107 0.000000
vn -0.707107 0.707107 0.000000
vn -0.258819 0.965926 0.000000
vn -0.258819 0.965926 0.000000
vn -0.258819 0.965926 0.000000
vn -0.258819 0.965926 0.000000
vn 0.258819 0.965926 0.000000
vn 0.258819 0.965926 0.000000
vn 0.258819 0.965926 0.000000
vn 0.258819 0.965926 0.000000
vn 0.707107 0.707107 0.000000
vn 0.707107 0.707107 0.000000
vn 0.707107 0.707107 0.000000
vn 0.707107 0.707107 0.000000
vn 0.965926 0.258819 0.000000
vn 0.965926 0.258819 0.000000
vn 0.965926 0.258819 0.000000
vn 0.965926 0.258819 0.000000
vn 0.965926 -0.258819 0.000000
vn 0.965926 -0.258819 0.000000
vn 0.965926 -0.258819 0.000000
vn 0.965926 -0.258819 0.000000
vn 0.707107 -0.707107 0.000000
vn 0.707107 -0.707107 0.000000
vn 0.707107 -0.707107 0.000000
vn 0.707107 -0.707107 0.000000
vn 0.258819 -0.965926 0.000000
vn 0.258819 -0.965926 0.000000
vn 0.258819 -0.965926 0.000000
vn 0.258819 -0.965926 0.000000
vn -0.258819 -0.965926 0.000000
vn -0.258819 -0.965926 0.000000
vn -0.258819 -0.965926 0.000000
vn -0.258819 -0.965926 0.000000
vn -0.707107 -0.707107 0.000000
vn -0.707107 -0.707107 0.000000
vn -0.707107 -0.707107 0.000000
vn -0.707107 -0.707107 0.000000
vn -0.965926 -0.258819 0.000000
vn -0.965926 -0.258819 0.000000
vn -0.965926 -0.258819 0.000000
vn -0.965926 -0.258819 0.000000
vn -0.965926 0.258819 -0.000000
vn -0.965926 0.258819 -0.000000
vn -0.965926 0.258819 -0.000000
vn -0.965926 0.258819 -0.000000
vn -0.965926 -0.258819 0.000000
vn -0.965926 -0.258819 0.000000
vn -0.965926 -0.258819 0.000000
vn -0.965926 -0.258819 0.000000
vn -0.707107 -0.707107 0.000000
vn -0.707107 -0.707107 0.000000
vn -0.707107 -0.707107 0.000000
vn -0.707107 -0.707107 0.000000
vn -0.258819 -0.965926 0.000000
vn -0.258819 -0.965926 0.000000
vn -0.258819 -0.965926 0.000000
vn -0.258819 -0.965926 0.000000
vn 0.258819 -0.965926 0.000000
vn 0.258819 -0.965926 0.000000
vn 0.258819 -0.965926 0.000000
vn 0.258819 -0.965926 0.000000
vn 0.707107 -0.707107 0.000000
vn 0.707107 -0.707107 0.000000
vn 0.707107 -0.707107 0.000000
vn 0.707107 -0.707107 0.000000
vn 0.965926 -0.258819 0.000000
vn 0.965926 -0.258819 0.000000
vn 0.965926 -0.258819 0.000000
vn 0.965926 -0.258819 0.000000
vn 0.965926 0.258819 0.000000
vn 0.965926 0.258819 0.000000
vn 0.965926 0.258819 0.000000
vn 0.965926 0.258819 0.000000
vn 0.707106 0.707107 0.000000
vn 0.707106 0.707107 0.000000
vn 0.707106 0.707107 0.000000
vn 0.707106 0.707107 0.000000
vn 0.258819 0.965926 0.000000
vn 0.258819 0.965926 0.000000
vn 0.258819 0.965926 0.000000
vn 0.258819 0.965926 0.000000
vn -0.258819 0.965926 0.000000
vn -0.258819 0.965926 0.000000
vn -0.258819 0.965926 0.000000
vn -0.258819 0.965926 0.000000
vn -0.707106 0.707107 0.000000
vn -0.707106 0.707107 0.000000
vn -0.707106 0.707107 0.000000
vn -0.707106 0.707107 0.000000
vn -0.965926 0.258819 0.000000
vn -0.965926 0.258819 0.000000
vn -0.965926 0.258819 0.000000
vn -0.965926 0.258819 0.000000
s off
g coin:pCylinder1
usemtl initialShadingGroup
f 1/1/1 2/2/2 14/3/3 13/4/4
f 2/2/5 3/5/6 15/6/7 14/3/8
f 3/5/9 4/7/10 16/8/11 15/6/12
f 4/7/13 5/9/14 17/10/15 16/8/16
f 5/9/17 6/11/18 18/12/19 17/10/20
f 6/11/21 7/13/22 19/14/23 18/12/24
f 7/13/25 8/15/26 20/16/27 19/14/28
f 8/15/29 9/17/30 21/18/31 20/16/32
f 9/17/33 10/19/34 22/20/35 21/18/36
f 10/19/37 11/21/38 23/22/39 22/20/40
f 11/21/41 12/23/42 24/24/43 23/22/44
f 12/23/45 1/25/46 13/26/47 24/24/48
f 50/27/49 49/28/50 51/29/51 52/30/52 53/31/53 54/32/54 55/33/55 56/34/56 57/35/57 58/36/58 59/37/59 60/38/60
f 61/39/61 62/40/62 63/41/63 64/42/64 65/43/65 66/44/66 67/45/67 68/46/68 69/47/69 70/48/70 71/49/71 72/50/72
f 11/51/73 10/52/74 25/53/75 26/54/76
f 10/52/77 9/55/78 27/56/79 25/53/80
f 9/55/81 8/57/82 28/58/83 27/56/84
f 8/57/85 7/59/86 29/60/87 28/58/88
f 7/59/89 6/61/90 30/62/91 29/60/92
f 6/61/93 5/63/94 31/64/95 30/62/96
f 5/63/97 4/65/98 32/66/99 31/64/100
f 4/65/101 3/67/102 33/68/103 32/66/104
f 3/67/105 2/69/106 34/70/107 33/68/108
f 2/69/109 1/71/110 35/72/111 34/70/112
f 1/71/113 12/73/114 36/74/115 35/72/116
f 12/73/117 11/51/118 26/54/119 36/74/120
f 24/75/121 13/76/122 38/77/123 37/78/124
f 13/76/125 14/79/126 39/80/127 38/77/128
f 14/79/129 15/81/130 40/82/131 39/80/132
f 15/81/133 16/83/134 41/84/135 40/82/136
f 16/83/137 17/85/138 42/86/139 41/84/140
f 17/85/141 18/87/142 43/88/143 42/86/144
f 18/87/145 19/89/146 44/90/147 43/88/148
f 19/89/149 20/91/150 45/92/151 44/90/152
f 20/91/153 21/93/154 46/94/155 45/92/156
f 21/93/157 22/95/158 47/96/159 46/94/160
f 22/95/161 23/97/162 48/98/163 47/96/164
f 23/97/165 24/75/166 37/78/167 48/98/168
f 26/54/169 25/53/170 49/28/171 50/27/172
f 25/53/173 27/56/174 51/29/175 49/28/176
f 27/56/177 28/58/178 52/30/179 51/29/180
f 28/58/181 29/60/182 53/31/183 52/30/184
f 29/60/185 30/62/186 54/32/187 53/31/188
f 30/62/189 31/64/190 55/33/191 54/32/192
f 31/64/193 32/66/194 56/34/195 55/33/196
f 32/66/197 33/68/198 57/35/199 56/34/200
f 33/68/201 34/70/202 58/36/203 57/35/204
f 34/70/205 35/72/206 59/37/207 58/36/208
f 35/72/209 36/74/210 60/38/211 59/37/212
f 36/74/213 26/54/214 50/27/215 60/38/216
f 37/78/217 38/77/218 62/40/219 61/39/220
f 38/77/221 39/80/222 63/41/223 62/40/224
f 39/80/225 40/82/226 64/42/227 63/41/228
f 40/82/229 41/84/230 65/43/231 64/42/232
f 41/84/233 42/86/234 66/44/235 65/43/236
f 42/86/237 43/88/238 67/45/239 66/44/240
f 43/88/241 44/90/242 68/46/243 67/45/244
f 44/90/245 45/92/246 69/47/247 68/46/248
f 45/92/249 46/94/250 70/48/251 69/47/252
f 46/94/253 47/96/254 71/49/255 70/48/256
f 47/96/257 48/98/258 72/50/259 71/49/260
f 48/98/261 37/78/262 61/39/263 72/50/264
